#N canvas 153 166 589 382 12;
#X obj 18 61 inlet;
#X obj 153 334 outlet~;
#X obj 18 157 unpack f s;
#X obj 18 181 send, f 10;
#X obj 18 109 list append \$0;
#X msg 18 133 \$2 \$3-\$1;
#X obj 275 238 / 100;
#X obj 398 214 r \$0-delay;
#X obj 275 214 r \$0-fold;
#X msg 398 262 \$1 10;
#X msg 275 262 \$1 10;
#X obj 85 61 list split 2;
#X obj 125 85 t b l;
#X obj 85 14 loadbang;
#X obj 275 286 line~;
#X obj 398 286 line~;
#X obj 521 245 / 100;
#X obj 521 221 r \$0-fb;
#X obj 171 239 phasor~ 80;
#X obj 153 167 loadbang;
#X obj 171 215 r \$0-freq;
#X obj 153 191 expr 8*atan(1);
#X obj 153 286 *~;
#X obj 259 142 r \$0-skew;
#X obj 259 166 exp;
#X obj 171 263 pow~, f 13;
#X obj 85 37 list store freq \$1 fb \$2 delay \$3 fold \$4 skew \$5;
#X obj 398 238 clip 1 63;
#X obj 521 269 sig~;
#X obj 153 310 linfb_int~, f 53;
#X connect 0 0 4 0;
#X connect 2 0 3 0;
#X connect 2 1 3 1;
#X connect 4 0 5 0;
#X connect 5 0 2 0;
#X connect 6 0 10 0;
#X connect 7 0 27 0;
#X connect 8 0 6 0;
#X connect 9 0 15 0;
#X connect 10 0 14 0;
#X connect 11 0 4 0;
#X connect 11 1 12 0;
#X connect 12 0 26 0;
#X connect 12 1 26 1;
#X connect 13 0 26 0;
#X connect 14 0 29 1;
#X connect 15 0 29 2;
#X connect 16 0 28 0;
#X connect 17 0 16 0;
#X connect 18 0 25 0;
#X connect 19 0 21 0;
#X connect 20 0 18 0;
#X connect 21 0 22 0;
#X connect 22 0 29 0;
#X connect 23 0 24 0;
#X connect 24 0 25 1;
#X connect 25 0 22 1;
#X connect 26 0 11 0;
#X connect 27 0 9 0;
#X connect 28 0 29 3;
#X connect 29 0 1 0;
