#N canvas 502 57 669 628 12;
#X declare -path ..;
#X obj 60 547 dac~;
#X obj 53 510 +~;
#X floatatom 233 316 12 0 1 0 - - - 0;
#X obj 233 293 random 1e+06;
#X obj 233 339 * 1000;
#X msg 233 363 seed \$1;
#X floatatom 71 350 5 0 0 0 - - - 0;
#X msg 71 373 freq \$1;
#X obj 442 237 float;
#X obj 442 261 + 1;
#X obj 442 285 % 2;
#X obj 442 309 sig~;
#X obj 442 357 abs~;
#X obj 381 413 *~ 1;
#X obj 71 450 hip~ 100;
#X obj 71 474 hip~ 100;
#X obj 71 273 bng 19 250 50 0 empty empty empty 0 -10 0 12 #fcfcfc #000000 #000000;
#X obj 71 297 samplerate~;
#X obj 135 554 line 100;
#X msg 82 597 harms \$1;
#X obj 298 511 line 100;
#X msg 298 535 ramp \$1;
#X floatatom 397 522 5 0 0 0 - - - 0;
#X obj 298 487 expr pow(random(0 \, 1e+6) / 1e+06 \, 6) * 20;
#X obj 233 154 line 100;
#X obj 233 130 expr random(200 \, 1000);
#X obj 262 60 expr random(1000 \, 5000);
#N canvas 266 291 450 300 imp 1;
#X obj 39 137 fexpr~ $x1[0] < $x1[-1];
#X obj 39 113 phasor~ 1;
#X obj 246 16 loadbang;
#X obj 246 40 samplerate~;
#X obj 246 64 / 2;
#X obj 194 73 swap;
#X obj 39 161 *~;
#X obj 194 97 /, f 4;
#X obj 105 42 max 200;
#X obj 49 56 abs;
#X obj 39 185 outlet~;
#X obj 46 13 inlet;
#X connect 0 0 6 0;
#X connect 1 0 0 0;
#X connect 2 0 3 0;
#X connect 3 0 4 0;
#X connect 4 0 5 1;
#X connect 5 0 7 0;
#X connect 5 1 7 1;
#X connect 6 0 10 0;
#X connect 7 0 6 1;
#X connect 8 0 5 0;
#X connect 9 0 1 0;
#X connect 11 0 9 0;
#X connect 11 0 8 0;
#X restore 7 375 pd imp;
#X floatatom 262 84 5 0 0 0 - - - 0;
#X floatatom 233 178 5 0 0 0 - - - 0;
#X obj 474 132 line 100;
#X floatatom 503 62 5 0 0 0 - - - 0;
#X floatatom 474 156 5 0 0 0 - - - 0;
#X obj 474 108 expr random(300 \, 1200);
#X obj 503 38 expr random(1500 \, 10000);
#X floatatom 160 586 5 0 0 0 - - - 0;
#X obj 135 530 expr random(7 \, 30);
#X floatatom 7 327 5 0 0 0 - - - 0;
#X obj 119 239 t b f;
#X floatatom 17 238 5 0 0 0 - - - 0;
#X obj 71 321 expr $f1 / 2 / $f2;
#X obj 17 214 expr round(pow(random(0 \, 1e+6) / 1e+06 \, 2) * 16) + 2;
#X obj 442 381 *~ 40;
#X obj 442 333 hip~ 0.2;
#X obj 20 26 declare -path ..;
#X obj 262 36 lerp/poisson 10000;
#X obj 503 14 lerp/poisson 9000;
#X obj 474 84 lerp/poisson 1000;
#X obj 233 106 lerp/poisson 1000;
#X obj 17 190 lerp/poisson 1000;
#X obj 234 266 lerp/poisson 240;
#X obj 442 213 lerp/poisson 200;
#X obj 71 426 lerp/rndbp 8 600 20 200 234 0;
#X obj 298 463 lerp/poisson 1000;
#X obj 135 506 lerp/poisson 4000;
#X connect 1 0 0 0;
#X connect 1 0 0 1;
#X connect 2 0 4 0;
#X connect 3 0 2 0;
#X connect 4 0 5 0;
#X connect 5 0 52 0;
#X connect 6 0 7 0;
#X connect 7 0 52 0;
#X connect 8 0 9 0;
#X connect 9 0 10 0;
#X connect 10 0 8 1;
#X connect 10 0 11 0;
#X connect 11 0 43 0;
#X connect 12 0 42 0;
#X connect 13 0 52 0;
#X connect 14 0 15 0;
#X connect 16 0 17 0;
#X connect 17 0 40 0;
#X connect 18 0 19 0;
#X connect 18 0 35 0;
#X connect 19 0 52 0;
#X connect 20 0 21 0;
#X connect 21 0 52 0;
#X connect 23 0 20 0;
#X connect 23 0 22 0;
#X connect 24 0 29 0;
#X connect 25 0 24 0;
#X connect 26 0 28 0;
#X connect 26 0 48 0;
#X connect 29 0 50 0;
#X connect 30 0 32 0;
#X connect 32 0 51 0;
#X connect 33 0 30 0;
#X connect 34 0 31 0;
#X connect 34 0 47 0;
#X connect 36 0 18 0;
#X connect 37 0 27 0;
#X connect 38 0 16 0;
#X connect 38 1 40 1;
#X connect 40 0 6 0;
#X connect 41 0 38 0;
#X connect 41 0 39 0;
#X connect 42 0 13 0;
#X connect 43 0 12 0;
#X connect 45 0 26 0;
#X connect 46 0 34 0;
#X connect 47 0 33 0;
#X connect 48 0 25 0;
#X connect 49 0 41 0;
#X connect 50 0 3 0;
#X connect 51 0 8 0;
#X connect 52 0 1 0;
#X connect 52 0 14 0;
#X connect 53 0 23 0;
#X connect 54 0 36 0;
