#N canvas 281 46 945 603 12;
#X declare -path ..;
#X obj 477 360 output~;
#X floatatom 50 203 5 0 180 0 - - - 0;
#X obj 50 250 s \$0-angle;
#X obj 485 257 clip~ -0.9 0.9;
#X obj 597 260 clip~ -0.9 0.9;
#X obj 50 104 pack f f, f 20;
#X msg 50 128 \$1 \$2;
#X obj 50 152 line 10;
#X obj 325 62 noise~;
#X obj 326 115 *~;
#X obj 251 33 bng 19 250 50 0 empty empty empty 0 -10 0 12 #fcfcfc #000000 #000000;
#X obj 402 70 lop~ 16;
#X obj 402 94 *~ 128;
#X obj 641 77 noise~;
#X obj 642 130 *~;
#X obj 660 174 hip~ 100;
#X obj 660 198 lop~ 2000;
#X obj 718 109 *~ 128;
#X obj 521 217 *~ 0.25;
#X obj 718 85 lop~ 13;
#X obj 345 262 phasor~;
#X obj 345 285 *~ 0.25;
#X obj 345 239 *~ 0.06;
#X obj 345 309 lop~ 500;
#X obj 345 333 hip~ 500;
#X obj 485 289 bp~ 1000 0.4;
#X obj 591 292 bp~ 1000 0.4;
#X obj 613 477 *~ 0.1;
#X msg 620 337 16 23;
#X obj 570 533 output~;
#X obj 613 450 *~;
#X obj 736 504 print;
#X obj 427 482 print delay;
#N canvas 121 146 474 338 ratchet-amp 0;
#X obj 20 17 inlet;
#X obj 20 288 outlet~;
#X obj 20 65 until;
#X obj 20 89 f, f 7;
#X obj 79 89 + 1;
#X msg 66 65 0;
#X obj 20 41 t f b f, f 14;
#X obj 221 41 v time\$0;
#X obj 134 41 v repeats\$0;
#X obj 20 216 pipe f f 0, f 17;
#N canvas 346 295 210 294 ratchet-step 0;
#X obj 14 86 until;
#X msg 60 86 0;
#X obj 72 110 + 1;
#X obj 14 110 f, f 7;
#X obj 14 159 *, f 5;
#X obj 14 183 pack f f, f 10;
#X obj 14 231 vline~ 0;
#X msg 14 207 1 0 \$1 \, 0 \$2 \$1;
#X obj 14 13 inlet;
#X obj 14 37 unpack f f, f 13;
#X floatatom 102 122 5 0 0 0 - - - 0;
#X obj 150 230 bng 19 250 50 0 empty empty empty 0 -10 0 12 #fcfcfc #000000 #000000;
#X obj 150 254 bng 19 250 50 0 empty empty empty 0 -10 0 12 #fcfcfc #000000 #000000;
#X obj 175 254 bng 19 250 50 0 empty empty empty 0 -10 0 12 #fcfcfc #000000 #000000;
#X obj 14 255 outlet~;
#X obj 14 62 t f b, f 7;
#X connect 0 0 3 0;
#X connect 1 0 3 1;
#X connect 2 0 3 1;
#X connect 3 0 2 0;
#X connect 3 0 4 0;
#X connect 4 0 5 0;
#X connect 5 0 7 0;
#X connect 6 0 14 0;
#X connect 7 0 6 0;
#X connect 8 0 9 0;
#X connect 9 0 15 0;
#X connect 9 1 10 0;
#X connect 10 0 4 1;
#X connect 10 0 5 1;
#X connect 11 0 12 0;
#X connect 15 0 0 0;
#X connect 15 1 1 0;
#X restore 20 264 pd ratchet-step;
#X obj 20 240 pack f f;
#X obj 115 65 expr repeats\$0 = random(2 \, 30) \; time\$0 = random(10 \, 30) \; random(15 \, 30), f 32;
#X obj 20 140 expr repeats\$0 = max(0 \, min(20 \, repeats\$0 + random(-1 \, 2))) \; time\$0 = max(0 \, min(20 \, time\$0 + random(-4 \, 6))) \; (1 + $f1) * ($f2 + random(-2 \, 3)) \;, f 61;
#X connect 0 0 6 0;
#X connect 2 0 3 0;
#X connect 3 0 4 0;
#X connect 3 0 13 0;
#X connect 4 0 3 1;
#X connect 5 0 3 1;
#X connect 6 0 2 0;
#X connect 6 1 5 0;
#X connect 6 2 12 0;
#X connect 9 0 11 0;
#X connect 9 1 11 1;
#X connect 10 0 1 0;
#X connect 11 0 10 0;
#X connect 12 2 13 1;
#X connect 13 0 9 0;
#X connect 13 1 9 1;
#X connect 13 2 9 2;
#X restore 723 385 pd ratchet-amp;
#X obj 729 304 bng 19 250 50 0 empty empty empty 0 -10 0 12 #fcfcfc #000000 #000000;
#X obj 729 328 random 10;
#X obj 729 352 + 1;
#X obj 20 551 clip~ -0.9 0.9;
#X obj 20 607 output~;
#X obj 20 527 *~ 0.2;
#N canvas 532 199 532 300 tri-fb-click 0;
#X obj 24 254 outlet~;
#X floatatom 358 19 5 0 0 0 - - - 0;
#X obj 358 67 *~ 0.01;
#X obj 199 66 loadbang;
#X obj 199 90 expr 8 * atan(1);
#X obj 256 32 bng 19 250 50 0 empty empty empty 0 -10 0 12 #fcfcfc #000000 #000000;
#X obj 24 49 fexpr~ $x1[0] < $x1[-1];
#X obj 24 129 fexpr~ asin(sin($x1[0] * $f2 * (1 + $x3[0]) * (1e-6 + $y1[-$f4]))), f 67;
#X floatatom 447 76 5 0 0 0 - - - 0;
#X obj 358 42 nbx 5 17 -1e+37 1e+37 0 1 empty empty empty 0 -10 0 12 #fcfcfc #000000 #000000 -73 256;
#X obj 447 99 nbx 5 17 -1e+37 1e+37 0 1 empty empty empty 0 -10 0 12 #fcfcfc #000000 #000000 3 256;
#X obj 24 73 lop~ 2;
#X obj 24 97 *~ 3000;
#X obj 24 25 phasor~ 4;
#X connect 1 0 9 0;
#X connect 2 0 7 2;
#X connect 3 0 4 0;
#X connect 4 0 7 1;
#X connect 5 0 4 0;
#X connect 6 0 11 0;
#X connect 7 0 0 0;
#X connect 8 0 10 0;
#X connect 9 0 2 0;
#X connect 10 0 7 3;
#X connect 11 0 12 0;
#X connect 12 0 7 0;
#X connect 13 0 6 0;
#X restore 20 386 pd tri-fb-click;
#X obj 487 18 r \$0-angle;
#X obj 50 66 expr random(0 \, 100) \; random(0 \, 800);
#X obj 50 226 clip 0 100;
#N canvas 480 87 718 605 spin 0;
#X obj 160 141 phasor~ 440;
#X obj 160 164 fexpr~ $x1[0] < $x1[-1];
#X obj 160 117 abs~;
#X obj 118 449 outlet~;
#X obj 286 451 outlet~;
#X obj 11 145 noise~;
#X obj 10 247 samphold~;
#X obj 11 217 mtof~;
#X obj 82 65 lop~ 1.2;
#X obj 82 111 *~ 9;
#X obj 11 169 *~ 12, f 8;
#X obj 11 193 +~, f 4;
#X obj 82 135 +~ 84;
#X obj 160 93 hip~ 0.5;
#X obj 262 10 inlet;
#X obj 82 89 /~ 100;
#X obj 428 209 / 100;
#N canvas 629 254 450 300 reso1 0;
#X obj 47 19 inlet~;
#X obj 116 20 inlet~;
#X obj 45 107 bp~ 1000;
#X obj 139 142 *~ 64;
#X obj 139 118 vcf~ 40;
#X obj 111 185 /~ 16;
#X obj 107 243 outlet~;
#X obj 180 64 loadbang;
#X msg 180 88 50;
#X connect 0 0 4 1;
#X connect 1 0 4 0;
#X connect 1 0 2 0;
#X connect 2 0 5 0;
#X connect 3 0 5 0;
#X connect 4 0 3 0;
#X connect 5 0 6 0;
#X connect 7 0 8 0;
#X connect 8 0 4 2;
#X restore 115 394 pd reso1;
#N canvas 121 146 450 300 reso2 1;
#X msg 125 62 freq 240 490 510 630 790 980 1090 1250 \, q 7.5 5.5 10.5 5.5 20.5 9.5 4.5 5.5 \, amp 2.8 1 3.7 2 4.9 2.8 3.9 7, f 39;
#X obj 125 119 else/bpbank~ 8 2;
#X obj 44 122 bp~ 1200;
#X obj 125 170 *~ 8;
#X obj 44 198 /~ 24;
#X obj 125 36 loadbang;
#X obj 45 20 inlet~;
#X obj 44 247 outlet~;
#X connect 0 0 1 0;
#X connect 1 0 3 0;
#X connect 2 0 4 0;
#X connect 3 0 4 0;
#X connect 4 0 7 0;
#X connect 5 0 0 0;
#X connect 6 0 2 0;
#X restore 313 396 pd reso2;
#X obj 178 243 -~ 1;
#X obj 178 267 *~ -1;
#X obj 160 291 *~;
#X obj 317 288 *~;
#X connect 0 0 1 0;
#X connect 0 0 6 1;
#X connect 1 0 21 0;
#X connect 1 0 22 0;
#X connect 2 0 0 0;
#X connect 5 0 10 0;
#X connect 6 0 17 0;
#X connect 7 0 6 0;
#X connect 8 0 15 0;
#X connect 9 0 12 0;
#X connect 10 0 11 0;
#X connect 11 0 7 0;
#X connect 12 0 11 1;
#X connect 13 0 2 0;
#X connect 14 0 13 0;
#X connect 14 0 16 0;
#X connect 14 0 8 0;
#X connect 15 0 9 0;
#X connect 16 0 19 0;
#X connect 16 0 22 1;
#X connect 17 0 3 0;
#X connect 18 0 4 0;
#X connect 19 0 20 0;
#X connect 20 0 21 1;
#X connect 21 0 17 1;
#X connect 22 0 18 0;
#X restore 486 41 pd spin;
#X obj 344 183 lop~ 2000;
#X obj 344 159 hip~ 120;
#X obj 729 12 declare -path ..;
#X obj 50 42 lerp/poisson 1500;
#X obj 685 444 osc~ 400;
#X connect 1 0 43 0;
#X connect 3 0 25 0;
#X connect 4 0 26 0;
#X connect 5 0 6 0;
#X connect 6 0 7 0;
#X connect 7 0 1 0;
#X connect 8 0 9 0;
#X connect 9 0 46 0;
#X connect 10 0 42 0;
#X connect 11 0 12 0;
#X connect 12 0 9 1;
#X connect 13 0 14 0;
#X connect 14 0 15 0;
#X connect 15 0 16 0;
#X connect 16 0 4 0;
#X connect 16 0 18 0;
#X connect 17 0 14 1;
#X connect 18 0 3 0;
#X connect 18 0 4 0;
#X connect 19 0 17 0;
#X connect 20 0 21 0;
#X connect 21 0 23 0;
#X connect 22 0 20 0;
#X connect 23 0 24 0;
#X connect 25 0 0 0;
#X connect 26 0 0 1;
#X connect 27 0 29 0;
#X connect 27 0 29 1;
#X connect 30 0 27 0;
#X connect 33 0 30 0;
#X connect 34 0 35 0;
#X connect 35 0 36 0;
#X connect 36 0 33 0;
#X connect 37 0 38 0;
#X connect 37 0 38 1;
#X connect 39 0 37 0;
#X connect 40 0 39 0;
#X connect 41 0 44 0;
#X connect 42 0 5 0;
#X connect 42 1 5 1;
#X connect 43 0 2 0;
#X connect 44 0 3 0;
#X connect 44 1 4 0;
#X connect 44 1 19 0;
#X connect 45 0 3 0;
#X connect 45 0 18 0;
#X connect 45 0 22 0;
#X connect 46 0 45 0;
#X connect 48 0 42 0;
#X connect 49 0 30 1;
