#N canvas 391 96 868 595 12;
#X declare -path ../;
#X obj 83 237 output~;
#X msg 12 14 freq 5 \, fb 146 \, delay 1 \, fold 238;
#N canvas 114 357 766 222 linear-fb-tri 0;
#X obj 18 14 inlet;
#X obj 141 172 outlet~;
#X obj 18 134 unpack f s;
#X obj 18 158 send, f 10;
#X obj 18 86 list append \$0;
#X msg 18 110 \$2 \$3-\$1;
#X obj 141 110 phasor~ 80;
#X obj 273 110 expr 8 * atan(1);
#X obj 405 110 / 100;
#X obj 670 47 / 100;
#X obj 273 86 loadbang;
#X obj 141 86 r \$0-freq;
#X obj 405 86 r \$0-fb;
#X obj 537 23 r \$0-delay;
#X obj 670 23 r \$0-fold;
#X obj 62 14 loadbang;
#X msg 62 38 freq 5 \, fb 146 \, delay 1 \, fold 238;
#X msg 537 71 \$1 10;
#X obj 537 95 line~;
#X obj 537 47 clip 1 63;
#X msg 670 71 \$1 10;
#X obj 670 95 line~;
#X obj 141 134 fexpr~ sin($x5[0] * $x1[0] * $f2 + $f3 * ((1 - fmod($x4[0] \, 1)) * $y1[-floor($x4[0])] + fmod($x4[0] \, 1) * $y1[-ceil($x4[0])])), f 76;
#X obj 348 46 bng 19 250 50 0 empty empty empty 0 -10 0 12 #fcfcfc #000000 #000000;
#X connect 0 0 4 0;
#X connect 2 0 3 0;
#X connect 2 1 3 1;
#X connect 4 0 5 0;
#X connect 5 0 2 0;
#X connect 6 0 22 0;
#X connect 7 0 22 1;
#X connect 8 0 22 2;
#X connect 9 0 20 0;
#X connect 10 0 7 0;
#X connect 11 0 6 0;
#X connect 12 0 8 0;
#X connect 13 0 19 0;
#X connect 14 0 9 0;
#X connect 15 0 16 0;
#X connect 16 0 4 0;
#X connect 17 0 18 0;
#X connect 18 0 22 3;
#X connect 19 0 17 0;
#X connect 20 0 21 0;
#X connect 21 0 22 4;
#X connect 22 0 1 0;
#X connect 23 0 7 0;
#X restore 81 185 pd linear-fb-tri;
#X floatatom 225 122 5 0 0 0 - - - 0;
#X msg 225 145 delay \$1;
#X floatatom 298 122 5 0 0 0 - - - 0;
#X msg 298 145 fold \$1;
#X floatatom 157 121 5 0 0 0 - - - 0;
#X msg 157 144 fb \$1;
#X msg 27 44 freq 5 \, fb 108 \, delay 8 \, fold 50;
#X floatatom 92 120 5 0 0 0 - - - 0;
#X msg 92 143 freq \$1;
#X msg 50 73 freq 3 \, fb -97 \, delay 9 \, fold 152;
#X obj 566 261 output~;
#X obj 658 65 metro 10;
#X obj 630 21 tgl 19 0 empty empty empty 0 -10 0 12 #fcfcfc #000000 #000000 0 1;
#X obj 566 89 snapshot~;
#X msg 566 137 fold \$1;
#X obj 566 65 phasor~ 0.2;
#X obj 566 113 expr $f1 * 400 + 100;
#X obj 322 483 output~;
#X obj 320 358 +~;
#X obj 345 300 hip~ 1000;
#X obj 345 324 *~ 0.1;
#X obj 566 210 lop~ 100;
#X obj 566 234 lop~ 100;
#X obj 417 477 hip~ 100;
#X obj 417 501 hip~ 100;
#X obj 417 525 hip~ 100;
#X obj 417 549 hip~ 100;
#X obj 485 477 hip~ 100;
#X obj 485 501 hip~ 100;
#X obj 485 525 hip~ 100;
#X obj 485 549 hip~ 100;
#X obj 415 359 *~ 3000;
#X obj 76 527 declare -path ../;
#X obj 60 351 lerp/linfb-tri 0.5 -98 30 -590 0.4;
#X obj 244 198 lerp/linfb 5 146 1 238;
#X obj 387 147 lerp/linfb 3 -97 9 152;
#X obj 566 186 lerp/linfb -11 -115 39 238;
#X obj 320 248 lerp/linfb 5 108 8 50 0;
#X obj 345 276 lerp/linfb 4.5 129 4 50 0.5;
#X obj 415 335 lerp/linfb 0.2 -140 1 120;
#X obj 415 392 lerp/rndbp 16 2720 100 1200 134 5;
#X obj 429 435 lerp/rndbp 16 2720 100 1190 163 5;
#X connect 1 0 2 0;
#X connect 2 0 0 0;
#X connect 2 0 0 1;
#X connect 3 0 4 0;
#X connect 4 0 2 0;
#X connect 5 0 6 0;
#X connect 6 0 2 0;
#X connect 7 0 8 0;
#X connect 8 0 2 0;
#X connect 9 0 2 0;
#X connect 10 0 11 0;
#X connect 11 0 2 0;
#X connect 12 0 2 0;
#X connect 14 0 16 0;
#X connect 15 0 14 0;
#X connect 16 0 19 0;
#X connect 17 0 39 0;
#X connect 18 0 16 0;
#X connect 19 0 17 0;
#X connect 21 0 26 0;
#X connect 21 0 30 0;
#X connect 22 0 23 0;
#X connect 23 0 21 1;
#X connect 24 0 25 0;
#X connect 25 0 13 0;
#X connect 25 0 13 1;
#X connect 26 0 27 0;
#X connect 27 0 28 0;
#X connect 28 0 29 0;
#X connect 29 0 20 0;
#X connect 30 0 31 0;
#X connect 31 0 32 0;
#X connect 32 0 33 0;
#X connect 33 0 20 1;
#X connect 34 0 43 0;
#X connect 34 0 44 0;
#X connect 39 0 24 0;
#X connect 40 0 21 0;
#X connect 41 0 22 0;
#X connect 42 0 34 0;
#X connect 43 0 26 0;
#X connect 44 0 30 0;
