#N canvas 138 28 953 665 12;
#X declare -path ../;
#X obj 42 13 inlet;
#X obj 274 11 inlet;
#X obj 179 528 r \$0-state;
#X obj 50 37 s \$0-state;
#X obj 42 222 sel 1;
#X obj 179 576 outlet;
#X obj 230 576 switch~;
#X obj 717 205 declare -path ../;
#N canvas 723 197 325 356 gate2 0;
#X obj 142 19 inlet;
#X obj 88 19 inlet~;
#X msg 210 67 stop;
#X obj 89 265 *~;
#X obj 142 217 line~;
#X obj 89 289 outlet~;
#X obj 178 139 outlet;
#X obj 178 43 sel 0;
#X msg 178 115 0;
#X obj 30 19 inlet~;
#X obj 31 265 *~;
#X obj 31 289 outlet~;
#X obj 142 169 sel 0 1, f 16;
#X obj 178 91 del 4000;
#X msg 142 193 0 4000;
#X msg 196 193 1 10000;
#X connect 0 0 7 0;
#X connect 0 0 12 0;
#X connect 1 0 3 0;
#X connect 2 0 13 0;
#X connect 3 0 5 0;
#X connect 4 0 3 1;
#X connect 4 0 10 1;
#X connect 7 0 13 0;
#X connect 7 1 2 0;
#X connect 7 1 6 0;
#X connect 8 0 6 0;
#X connect 9 0 10 0;
#X connect 10 0 11 0;
#X connect 12 0 14 0;
#X connect 12 1 15 0;
#X connect 13 0 8 0;
#X connect 14 0 4 0;
#X connect 15 0 4 0;
#X restore 42 552 pd gate2;
#X f 20;
#X obj 572 20 loadbang;
#X obj 572 106 cos~;
#X obj 572 130 snapshot~;
#X obj 274 35 t f b;
#X obj 274 322 loadbang;
#X obj 572 82 phasor~;
#X obj 274 384 osc~;
#X obj 628 384 osc~;
#X obj 274 408 *~;
#X obj 42 528 *~;
#X obj 193 360 r \$0-state;
#X obj 193 384 sel 1;
#X obj 274 432 snapshot~;
#X obj 274 456 - 1;
#X obj 274 480 * -1;
#X msg 117 298 fb \$1;
#X obj 274 346 expr 0.07 * ((random(0 \, 1e+6) / 1e+6) * 0.5 + 0.5) \; 0.05 * ((random(0 \, 1e+6) / 1e+6) * 0.5 + 0.5) \;;
#X obj 572 44 expr 0.1 * ((random(0 \, 1e+6) / 1e+6) * 0.5 + 0.5) \; random(0 \, 1e+6) / 1e+06;
#X msg 42 298 fold \$1;
#X obj 42 432 lerp/linfb-tri 0 0 1.1 100 1.9;
#X obj 110 528 *~;
#X obj 42 480 lop~ 3000;
#X msg 274 298 freq \$1;
#X obj 274 202 line 100;
#X obj 274 274 *, f 5;
#X obj 338 202 lerp/poisson 400;
#X obj 338 226 expr random(0 \, 2) - 1;
#X obj 274 226 t f b;
#X obj 306 250 float;
#X obj 42 456 hip~ 50;
#X obj 572 154 expr 20 * (1 + $f1 * $f1);
#X obj 42 246 expr random(100 \, 400) \; random(180 \, 230) \; random(10 \, 30) / 10;
#X msg 193 298 delay \$1;
#X obj 274 178 expr -($f2 * (4.12 + random(-2 \, 3))) / $f1 \;;
#X obj 304 409 lerp/poisson 1000;
#X obj 42 576 outlet~;
#X obj 110 576 *~ 0.6;
#X obj 110 600 outlet~;
#X connect 0 0 4 0;
#X connect 0 0 3 0;
#X connect 1 0 12 0;
#X connect 2 0 8 2;
#X connect 4 0 40 0;
#X connect 8 0 44 0;
#X connect 8 1 45 0;
#X connect 8 2 5 0;
#X connect 8 2 6 0;
#X connect 9 0 26 0;
#X connect 10 0 11 0;
#X connect 11 0 39 0;
#X connect 12 0 42 0;
#X connect 12 1 11 0;
#X connect 13 0 25 0;
#X connect 14 0 10 0;
#X connect 15 0 17 0;
#X connect 16 0 17 1;
#X connect 17 0 21 0;
#X connect 18 0 8 0;
#X connect 19 0 20 0;
#X connect 20 0 21 0;
#X connect 21 0 22 0;
#X connect 21 0 18 1;
#X connect 22 0 23 0;
#X connect 23 0 29 1;
#X connect 24 0 28 0;
#X connect 25 0 15 0;
#X connect 25 1 16 0;
#X connect 26 0 14 0;
#X connect 26 1 14 1;
#X connect 27 0 28 0;
#X connect 28 0 38 0;
#X connect 29 0 8 1;
#X connect 30 0 18 0;
#X connect 30 0 29 0;
#X connect 31 0 28 0;
#X connect 32 0 36 0;
#X connect 33 0 31 0;
#X connect 34 0 35 0;
#X connect 35 0 37 1;
#X connect 36 0 33 0;
#X connect 36 1 37 0;
#X connect 37 0 33 1;
#X connect 38 0 30 0;
#X connect 39 0 42 1;
#X connect 40 0 27 0;
#X connect 40 1 24 0;
#X connect 40 2 41 0;
#X connect 41 0 28 0;
#X connect 42 0 32 0;
#X connect 43 0 21 0;
#X connect 45 0 46 0;
