#N canvas 294 114 474 566 12;
#X declare -path ..;
#X obj 330 6 declare -path ..;
#X obj 42 331 phasor~;
#X msg 88 308 0;
#X msg 42 100 get \$1;
#X floatatom 42 275 5 0 0 0 - - - 0;
#X obj 42 124 list store 0 2 5 7 10;
#X obj 42 76 random 5;
#X obj 42 251 mtof;
#X obj 42 226 +;
#X obj 74 196 * 12;
#X obj 42 355 lerp/fb;
#A saved 15.9705 0 -95;
#X obj 42 13 inlet;
#X obj 222 13 inlet;
#X obj 74 172 random 6;
#X obj 42 148 t f b;
#X obj 102 467 r \$0-state;
#X obj 87 37 s \$0-state;
#X obj 42 37 sel 1;
#X msg 168 281 fb \$1;
#N canvas 723 197 272 305 gate 1;
#X obj 103 19 inlet;
#X obj 49 19 inlet~;
#X msg 171 67 stop;
#X obj 50 211 *~, f 8;
#X obj 103 187 line~;
#X obj 50 235 outlet~;
#X obj 139 139 outlet;
#X obj 139 43 sel 0;
#X msg 139 115 0;
#X obj 139 91 del 2000;
#X msg 103 163 \$1 2000;
#X connect 0 0 10 0;
#X connect 0 0 7 0;
#X connect 1 0 3 0;
#X connect 2 0 9 0;
#X connect 3 0 5 0;
#X connect 4 0 3 1;
#X connect 7 0 9 0;
#X connect 7 1 2 0;
#X connect 7 1 6 0;
#X connect 8 0 6 0;
#X connect 9 0 8 0;
#X connect 10 0 4 0;
#X restore 42 491 pd gate;
#X f 9;
#X obj 42 515 outlet~;
#X obj 102 515 outlet;
#X obj 279 28 inlet;
#X msg 238 278 coarse \$1;
#X obj 153 515 switch~;
#X msg 203 405 coarse \$1;
#X obj 203 381 expr 16 + random(-1e+6 \, 1e+6) / 1e+06 * 0.1;
#X obj 203 333 r \$0-state;
#X obj 203 357 sel 1;
#X obj 42 439 lop~ 2000;
#X obj 42 463 *~ 0.3;
#X connect 1 0 10 0;
#X connect 2 0 1 1;
#X connect 3 0 5 0;
#X connect 4 0 2 0;
#X connect 4 0 1 0;
#X connect 5 0 14 0;
#X connect 6 0 3 0;
#X connect 7 0 4 0;
#X connect 8 0 7 0;
#X connect 9 0 8 1;
#X connect 10 0 29 0;
#X connect 11 0 17 0;
#X connect 11 0 16 0;
#X connect 12 0 18 0;
#X connect 13 0 9 0;
#X connect 14 0 8 0;
#X connect 14 1 13 0;
#X connect 15 0 19 1;
#X connect 17 0 6 0;
#X connect 18 0 10 0;
#X connect 19 0 20 0;
#X connect 19 1 21 0;
#X connect 19 1 24 0;
#X connect 22 0 23 0;
#X connect 23 0 10 0;
#X connect 25 0 10 0;
#X connect 26 0 25 0;
#X connect 27 0 28 0;
#X connect 28 0 26 0;
#X connect 29 0 30 0;
#X connect 30 0 19 0;
