#N canvas 121 146 450 460 12;
#N canvas 150 175 264 239 scan1 0;
#X obj 91 46 *~ 200;
#X obj 91 22 phasor~ 204;
#X obj 24 25 noise~;
#X obj 24 49 +~ 1;
#X obj 24 73 *~ 0.5;
#X obj 24 127 lop~ 0.3;
#X obj 24 103 lop~ 0.3;
#X obj 91 103 delwrite~ \$0-scan1 200;
#X obj 24 151 *~ 200;
#X obj 24 175 delread4~ \$0-scan1;
#X obj 91 77 tabread4~ \$1;
#X obj 24 199 outlet~;
#X connect 0 0 10 0;
#X connect 1 0 0 0;
#X connect 2 0 3 0;
#X connect 3 0 4 0;
#X connect 4 0 6 0;
#X connect 5 0 8 0;
#X connect 6 0 5 0;
#X connect 8 0 9 0;
#X connect 9 0 11 0;
#X connect 10 0 7 0;
#X restore 31 30 pd scan1;
#X obj 31 98 *~ 0.25;
#X obj 38 182 outlet~;
#N canvas 150 175 291 272 scan2 0;
#X obj 91 46 *~ 200;
#X obj 24 25 noise~;
#X obj 24 49 +~ 1;
#X obj 24 73 *~ 0.5;
#X obj 24 151 *~ 200;
#X obj 91 77 tabread4~ \$1;
#X obj 24 240 outlet~;
#X obj 91 22 phasor~ 62;
#X obj 24 216 delread4~ \$0-scan2;
#X obj 24 175 +~ 1000;
#X obj 91 103 delwrite~ \$0-scan2 1200;
#X obj 24 103 lop~ 2;
#X obj 24 127 lop~ 2;
#X connect 0 0 5 0;
#X connect 1 0 2 0;
#X connect 2 0 3 0;
#X connect 3 0 11 0;
#X connect 4 0 9 0;
#X connect 5 0 10 0;
#X connect 7 0 0 0;
#X connect 8 0 6 0;
#X connect 9 0 8 0;
#X connect 11 0 12 0;
#X connect 12 0 4 0;
#X restore 109 23 pd scan2;
#X obj 125 182 outlet~;
#X obj 108 92 *~ 0.25;
#X obj 190 26 switch~;
#X obj 218 183 output~;
#X connect 0 0 1 0;
#X connect 1 0 2 0;
#X connect 1 0 7 0;
#X connect 3 0 5 0;
#X connect 5 0 4 0;
#X connect 5 0 7 1;
