#N canvas 255 197 606 464 12;
#X obj 241 225 samphold~;
#X obj 223 249 *~;
#X floatatom 148 125 5 0 0 0 coarse \$0-coarse-s \$0-coarse-r 0;
#X obj 223 297 outlet~;
#X obj 223 34 inlet~;
#X floatatom 148 143 5 0 0 0 fb \$0-fb-s \$0-fb-r 0;
#X obj 290 82 s \$0-coarse-s;
#X obj 241 129 r \$0-coarse-r;
#X obj 341 106 s \$0-fb-s;
#X obj 479 177 r \$0-fb-r;
#X obj 479 225 line~;
#X obj 223 273 fexpr~ sin($x1[0] + $x2[0] * $y1[-1]);
#X msg 479 201 \$1 10;
#N canvas 865 187 325 302 state 0;
#X obj 113 23 savestate;
#X obj 173 112 f;
#X obj 173 138 pack f f f;
#X obj 191 65 r \$0-coarse-r;
#X obj 206 89 r \$0-amp-r;
#X obj 240 113 r \$0-fb-r;
#X obj 113 224 outlet;
#X obj 19 76 loadbang;
#X obj 19 132 spigot 1;
#X msg 72 108 0;
#X msg 113 199 coarse \$1 \, amp \$2 \, fb \$3;
#X msg 19 156 1 1 0;
#X text 24 255 loadbang срабатывает \, если savestate не вернул список сохранённых параметров, f 40;
#X connect 0 0 9 0;
#X connect 0 0 10 0;
#X connect 0 1 1 0;
#X connect 1 0 2 0;
#X connect 2 0 0 0;
#X connect 3 0 1 1;
#X connect 4 0 2 1;
#X connect 5 0 2 2;
#X connect 7 0 8 0;
#X connect 8 0 11 0;
#X connect 9 0 8 1;
#X connect 10 0 6 0;
#X connect 11 0 10 0;
#X restore 290 34 pd state;
#X text 116 103 lerp-fb;
#X obj 259 153 loadbang;
#X obj 259 177 expr 8 * atan(1);
#X obj 479 249 *~ 0.01;
#X obj 290 58 route coarse fb;
#X obj 241 201 *;
#X connect 0 0 1 1;
#X connect 1 0 11 0;
#X connect 4 0 1 0;
#X connect 4 0 0 1;
#X connect 4 1 18 0;
#X connect 7 0 19 0;
#X connect 9 0 12 0;
#X connect 10 0 17 0;
#X connect 11 0 3 0;
#X connect 12 0 10 0;
#X connect 13 0 18 0;
#X connect 15 0 16 0;
#X connect 16 0 19 1;
#X connect 17 0 11 1;
#X connect 18 0 6 0;
#X connect 18 1 8 0;
#X connect 19 0 0 0;
#X coords 0 -1 1 1 85 61 2 100 100;
