#N canvas 255 197 610 444 12;
#X obj 241 143 sig~;
#X obj 241 167 samphold~;
#X obj 223 193 *~;
#X floatatom 148 125 5 0 0 0 coarse \$0-coarse-s \$0-coarse-r 0;
#X obj 223 389 *~;
#X floatatom 148 161 5 0 0 0 amp \$0-amp-s \$0-amp-r 0;
#X obj 248 293 r \$0-amp-r;
#X obj 223 413 outlet~;
#X obj 223 34 inlet~;
#X floatatom 148 143 5 0 0 0 fb \$0-fb-s \$0-fb-r 0;
#X obj 363 84 route coarse amp fb;
#X obj 406 133 s \$0-amp-s;
#X obj 363 108 s \$0-coarse-s;
#X obj 241 119 r \$0-coarse-r;
#X obj 449 158 s \$0-fb-s;
#X obj 530 146 r \$0-fb-r;
#X obj 530 194 line~;
#X obj 530 224 /~ 100;
#X obj 223 264 fexpr~ sin($x1[0] + $x2[0] * $y1[-1]);
#X msg 248 317 \$1 10;
#X msg 530 170 \$1 10;
#X obj 248 341 line~;
#X obj 248 364 expr~ dbtorms($v1 + 100);
#N canvas 865 187 325 302 state 0;
#X obj 113 23 savestate;
#X obj 173 112 f;
#X obj 173 138 pack f f f;
#X obj 191 65 r \$0-coarse-r;
#X obj 206 89 r \$0-amp-r;
#X obj 240 113 r \$0-fb-r;
#X obj 113 224 outlet;
#X obj 19 76 loadbang;
#X obj 19 132 spigot 1;
#X msg 72 108 0;
#X msg 113 199 coarse \$1 \, amp \$2 \, fb \$3;
#X msg 19 156 1 1 0;
#X text 24 255 loadbang срабатывает \, если savestate не вернул список сохранённых параметров, f 40;
#X connect 0 0 9 0;
#X connect 0 0 10 0;
#X connect 0 1 1 0;
#X connect 1 0 2 0;
#X connect 2 0 0 0;
#X connect 3 0 1 1;
#X connect 4 0 2 1;
#X connect 5 0 2 2;
#X connect 7 0 8 0;
#X connect 8 0 11 0;
#X connect 9 0 8 1;
#X connect 10 0 6 0;
#X connect 11 0 10 0;
#X restore 363 34 pd state;
#X text 116 103 lerp-fb;
#X obj 223 240 expr~ $v1 * $f2;
#X obj 325 193 loadbang;
#X obj 325 217 expr 8 * atan(1);
#X connect 0 0 1 0;
#X connect 1 0 2 1;
#X connect 2 0 25 0;
#X connect 4 0 7 0;
#X connect 6 0 19 0;
#X connect 8 0 2 0;
#X connect 8 0 1 1;
#X connect 8 1 10 0;
#X connect 10 0 12 0;
#X connect 10 1 11 0;
#X connect 10 2 14 0;
#X connect 13 0 0 0;
#X connect 15 0 20 0;
#X connect 16 0 17 0;
#X connect 17 0 18 1;
#X connect 18 0 4 0;
#X connect 19 0 21 0;
#X connect 20 0 16 0;
#X connect 21 0 22 0;
#X connect 22 0 4 1;
#X connect 23 0 10 0;
#X connect 25 0 18 0;
#X connect 26 0 27 0;
#X connect 27 0 25 1;
#X coords 0 -1 1 1 85 79 2 100 100;
