#N canvas 202 248 963 388 12;
#X obj 18 61 inlet;
#X obj 153 334 outlet~;
#X obj 18 157 unpack f s;
#X obj 18 181 send, f 10;
#X obj 18 109 list append \$0;
#X msg 18 133 \$2 \$3-\$1;
#X obj 293 197 phasor~ 80;
#X obj 153 238 / 100;
#X obj 275 125 loadbang;
#X obj 293 173 r \$0-freq;
#X obj 397 148 r \$0-delay;
#X obj 153 214 r \$0-fold;
#X msg 397 172 \$1 10;
#X msg 153 262 \$1 10;
#X obj 85 61 list split 2;
#X obj 125 85 t b l;
#X obj 85 14 loadbang;
#X obj 153 286 line~;
#X obj 275 149 expr 8*atan(1);
#X obj 397 196 line~;
#X obj 397 220 clip~ 1 63;
#X obj 275 244 *~;
#X obj 765 220 / 100;
#X obj 765 196 r \$0-fb;
#X obj 397 244 expr~ (1 - fmod($v1 \, 1)) * $f2 \; -floor($v1) \; fmod($v1 \, 1) * $f2 \; -ceil($v1), f 53;
#X obj 153 310 fexpr~ asin(sin($x1[0] * $x2[0] + $x3[0] * $y1[$x4[0]] + $x5[0] * $y1[$x6[0]]) + $f7), f 105;
#X obj 381 100 r \$0-skew;
#X obj 85 37 list store freq \$1 fb \$2 delay \$3 fold \$4 skew \$5;
#X obj 381 124 exp;
#X obj 293 221 pow~, f 13;
#X connect 0 0 4 0;
#X connect 2 0 3 0;
#X connect 2 1 3 1;
#X connect 4 0 5 0;
#X connect 5 0 2 0;
#X connect 6 0 29 0;
#X connect 7 0 13 0;
#X connect 8 0 18 0;
#X connect 9 0 6 0;
#X connect 10 0 12 0;
#X connect 11 0 7 0;
#X connect 12 0 19 0;
#X connect 13 0 17 0;
#X connect 14 0 4 0;
#X connect 14 1 15 0;
#X connect 15 0 27 0;
#X connect 15 1 27 1;
#X connect 16 0 27 0;
#X connect 17 0 25 0;
#X connect 18 0 21 0;
#X connect 19 0 20 0;
#X connect 20 0 24 0;
#X connect 21 0 25 1;
#X connect 22 0 24 1;
#X connect 23 0 22 0;
#X connect 24 0 25 2;
#X connect 24 1 25 3;
#X connect 24 2 25 4;
#X connect 24 3 25 5;
#X connect 25 0 1 0;
#X connect 26 0 28 0;
#X connect 27 0 14 0;
#X connect 28 0 29 1;
#X connect 29 0 21 1;
