#N canvas 341 88 322 228 12;
#X obj 254 7 inlet;
#X obj 254 53 pow -1;
#X obj 72 30 r \$0-delayed-bang;
#X obj 72 53 random 9.9999e+07;
#X obj 72 76 / 1e+08;
#X obj 72 145 t b f;
#X obj 72 168 delay;
#X obj 72 191 s \$0-delayed-bang;
#X obj 72 122 expr -1 / $f2 * log(1 - $f1), f 33;
#X obj 21 191 outlet;
#X obj 7 30 loadbang;
#X obj 189 7 loadbang;
#X obj 254 76 moses 0;
#X obj 254 30 float \$1;
#X connect 0 0 13 0;
#X connect 1 0 12 0;
#X connect 2 0 3 0;
#X connect 3 0 4 0;
#X connect 4 0 8 0;
#X connect 5 0 6 0;
#X connect 5 0 9 0;
#X connect 5 1 6 1;
#X connect 6 0 7 0;
#X connect 8 0 5 0;
#X connect 10 0 3 0;
#X connect 11 0 13 0;
#X connect 12 1 8 1;
#X connect 13 0 1 0;
#X coords 0 0 0.5 0.5 0 0 0;
