#N canvas 297 51 364 367 12;
#X obj 10 120 outlet~;
#X obj 103 120 outlet~;
#X obj 10 10 inlet;
#N canvas 514 69 518 546 voicemap 0;
#X obj 8 8 inlet;
#X obj 268 345 loadbang;
#X obj 268 393 \$1;
#X obj 268 417 until;
#X msg 268 441 -1;
#X obj 244 345 bng 19 250 50 0 empty empty empty 0 -10 0 12 #fcfcfc #000000 #000000;
#X obj 268 465 text insert \$0-voices;
#X obj 8 56 list split 1;
#X obj 80 128 route status;
#X msg 187 56 \$1;
#X obj 8 32 t l l, f 26;
#X obj 48 80 t l l;
#X obj 80 200 text search \$0-voices;
#X obj 80 104 list trim;
#X obj 367 32 t b f;
#X msg 367 56 -1;
#X obj 367 80 text set \$0-voices;
#X listbox 101 490 20 0 0 0 - - - 0;
#X obj 48 441 list, f 19;
#X obj 48 393 t b l, f 19;
#X msg 80 176 -1;
#X obj 195 80 v \$0-device;
#X obj 112 296 text set \$0-voices;
#X obj 112 272 v \$0-device;
#X obj 187 104 text search \$0-voices;
#X obj 101 513 outlet;
#X obj 314 417 text define -k \$0-voices;
#A set 4 \; 3 \; 1 \; 0 \; 6 \; 8 \; 2 \; -1 \; -1 \; -1 \; -1 \; -1 \; -1 \; -1 \; -1 \; -1 \; -1 \; -1 \; -1 \; -1 \; -1 \; -1 \; -1 \; -1 \; -1 \; -1 \; -1 \; -1 \; -1 \; -1 \; -1 \; -1 \; -1 \; -1 \; -1 \; -1 \; -1 \; -1 \; -1 \; -1 \; -1 \; -1 \; -1 \; -1 \; -1 \; -1 \; -1 \; -1 \; -1 \; -1 \; -1 \; -1 \; -1 \; -1 \; -1 \; -1 \; -1 \; -1 \; -1 \; -1 \;;
#X obj 48 465 route -1;
#X obj 80 224 moses;
#X obj 112 248 t b f;
#X obj 268 369 t b b, f 7;
#X msg 314 393 clear;
#X msg 80 321 out of voices;
#X obj 367 8 inlet;
#X obj 80 345 print voicemap;
#X obj 80 152 sel 1 0, f 12;
#X obj 187 128 v \$0-voice;
#X obj 124 224 v \$0-voice;
#X obj 48 417 v \$0-voice;
#X connect 0 0 10 0;
#X connect 1 0 30 0;
#X connect 2 0 3 0;
#X connect 3 0 4 0;
#X connect 4 0 6 0;
#X connect 5 0 30 0;
#X connect 7 1 11 0;
#X connect 8 0 35 0;
#X connect 9 0 21 0;
#X connect 9 0 24 0;
#X connect 10 0 7 0;
#X connect 10 1 9 0;
#X connect 11 0 19 0;
#X connect 11 1 13 0;
#X connect 12 0 28 0;
#X connect 12 0 37 0;
#X connect 13 0 8 0;
#X connect 14 0 15 0;
#X connect 14 1 16 1;
#X connect 15 0 16 0;
#X connect 17 0 25 0;
#X connect 18 0 27 0;
#X connect 19 0 38 0;
#X connect 19 1 18 1;
#X connect 20 0 12 0;
#X connect 23 0 22 0;
#X connect 24 0 36 0;
#X connect 27 1 17 0;
#X connect 28 0 32 0;
#X connect 28 1 29 0;
#X connect 29 0 23 0;
#X connect 29 1 22 1;
#X connect 30 0 2 0;
#X connect 30 1 31 0;
#X connect 31 0 26 0;
#X connect 32 0 34 0;
#X connect 33 0 14 0;
#X connect 35 0 20 0;
#X connect 38 0 18 0;
#X restore 10 34 pd voicemap;
#N canvas 0 22 450 278 (subpatch) 0;
#X array proba 8 float 2;
#X coords 0 1 8 0 160 40 1 0 0;
#X restore 10 171 graph;
#X obj 10 58 clone conversation-voice \$1 proba, f 27;
#N canvas 624 140 584 242 proba 0;
#X obj 13 119 snapshot~;
#X obj 156 119 snapshot~;
#X obj 39 14 loadbang;
#X obj 156 95 osc~ 0.07221;
#X obj 13 143 + 1;
#X obj 356 106 expr random(0 \, 1e+6) / 1e+06;
#X obj 356 130 pow 6;
#X obj 13 95 osc~ 0.01123;
#X obj 156 191 expr proba[1] = $f1 \; proba[2] = $f1;
#X obj 13 167 * 0.1;
#X obj 39 38 metro 1000;
#X obj 13 191 expr proba[0] = $f1;
#X obj 356 154 expr proba[3] = $f1 \; proba[4] = $f1;
#X obj 156 143 + 1.1;
#X obj 156 167 * 0.45;
#X connect 0 0 4 0;
#X connect 1 0 13 0;
#X connect 2 0 10 0;
#X connect 3 0 1 0;
#X connect 4 0 9 0;
#X connect 5 0 6 0;
#X connect 6 0 12 0;
#X connect 7 0 0 0;
#X connect 9 0 11 0;
#X connect 10 0 0 0;
#X connect 10 0 1 0;
#X connect 10 0 5 0;
#X connect 13 0 14 0;
#X connect 14 0 8 0;
#X restore 10 216 pd proba;
#X obj 275 144 sel, f 5;
#X obj 275 192 +, f 5;
#X obj 319 192 0;
#X obj 263 120 == 0;
#X obj 196 144 spigot, f 10;
#X obj 196 96 unpack f f;
#X floatatom 319 216 5 0 0 0 - - - 0;
#X msg 275 168 1;
#X msg 307 168 -1;
#X obj 238 215 loadbang;
#X obj 238 239 metro 1000;
#X obj 238 263 float, f 12;
#X obj 238 335 print voicemap;
#X msg 238 311 \$1 voices;
#X obj 238 287 change;
#X obj 10 96 *~ 0.25;
#X obj 103 96 *~ 0.25;
#X connect 2 0 3 0;
#X connect 3 0 5 0;
#X connect 5 0 22 0;
#X connect 5 1 23 0;
#X connect 5 2 12 0;
#X connect 7 0 14 0;
#X connect 7 1 15 0;
#X connect 8 0 9 0;
#X connect 9 0 8 1;
#X connect 9 0 13 0;
#X connect 10 0 11 1;
#X connect 10 0 7 0;
#X connect 11 0 3 1;
#X connect 12 0 11 0;
#X connect 12 1 10 0;
#X connect 13 0 18 1;
#X connect 14 0 8 0;
#X connect 15 0 8 0;
#X connect 16 0 17 0;
#X connect 17 0 18 0;
#X connect 18 0 21 0;
#X connect 20 0 19 0;
#X connect 21 0 20 0;
#X connect 22 0 0 0;
#X connect 23 0 1 0;
