#N canvas 397 99 818 522 12;
#X obj 25 12 inlet;
#X obj 25 395 outlet~;
#X obj 83 395 outlet~;
#X obj 202 443 switch~;
#X obj 151 443 outlet;
#X obj 106 85 sel 1;
#X obj 106 133 array quantile \$2;
#X obj 25 181 list prepend;
#X obj 25 36 t a a, f 12;
#X obj 106 61 route status;
#X obj 106 109 expr random(0 \, 1e+9) / 1e+09;
#X obj 168 229 route status rssi;
#X floatatom 226 253 5 0 0 0 - - - 0;
#X obj 25 229 route status rssi;
#X floatatom 83 253 5 0 0 0 - - - 0;
#X obj 25 276 voice/mid-chord;
#X obj 168 276 voice/high-chord;
#X obj 106 157 expr $f1;
#X obj 25 205 route 0 1 2, f 62;
#X msg 151 419 \$1;
#X obj 312 229 route status rssi;
#X floatatom 370 253 5 0 0 0 - - - 0;
#X obj 312 276 voice/mid-noise;
#X obj 312 300 *~ 0.2;
#X obj 363 300 *~ 0.2;
#X connect 0 0 8 0;
#X connect 5 0 10 0;
#X connect 6 0 17 0;
#X connect 7 0 18 0;
#X connect 8 0 7 0;
#X connect 8 1 9 0;
#X connect 9 0 5 0;
#X connect 10 0 6 0;
#X connect 11 0 16 0;
#X connect 11 1 12 0;
#X connect 12 0 16 1;
#X connect 13 0 15 0;
#X connect 13 1 14 0;
#X connect 14 0 15 1;
#X connect 15 0 1 0;
#X connect 15 0 2 0;
#X connect 15 1 19 0;
#X connect 16 0 1 0;
#X connect 16 1 2 0;
#X connect 16 2 19 0;
#X connect 17 0 7 1;
#X connect 18 0 13 0;
#X connect 18 1 11 0;
#X connect 18 2 20 0;
#X connect 19 0 4 0;
#X connect 19 0 3 0;
#X connect 20 0 22 0;
#X connect 20 1 21 0;
#X connect 21 0 22 1;
#X connect 22 0 23 0;
#X connect 22 1 24 0;
#X connect 22 2 19 0;
#X connect 23 0 1 0;
#X connect 24 0 2 0;
