#N canvas 52 71 938 503 12;
#X obj 56 60 float;
#X obj 56 86 pack f s f, f 13;
#X obj 738 197 0;
#X obj 768 197 expr ($i1 + 1) % 200;
#N canvas 0 22 450 278 (subpatch) 0;
#X array connected-devices 200 float 5;
#A 0 0 0 0 0 0 0 0 0 0 0 0 0 0 0 0 0 0 0 0 0 0 0 0 0 0 0 0 0 0 0 0 0 0 0 0 0 0 0 0 0 0 0 0 0 0 0 0 0 0 0 0 0 0 0 0 0 0 0 0 0 0 0 0 0 0 0 0 0 0 0 0 0 0 0 0 0 0 0 0 0 0 0 0 0 0 0 0 0 0 0 0 0 0 0 0 0 0 0 0 0 0 0 0 0 0 0 0 0 0 0 0 0 0 0 0 0 0 0 0 0 0 0 0 0 0 0 0 0 0 0 0 0 0 0 0 0 0 0 0 5.60519e-45 3.92364e-44 3.16693e-43 2.52934e-42 2.02333e-41 1.61864e-40 1.29491e-39 1.03593e-38 8.28744e-38 6.62995e-37 5.30396e-36 4.24317e-35 3.39454e-34 2.71563e-33 2.1725e-32 1.738e-31 1.3904e-30 1.11232e-29 8.89857e-29 7.11886e-28 5.69509e-27 4.55607e-26 3.64485e-25 2.91588e-24 2.33271e-23 1.86617e-22 1.49293e-21 1.19435e-20 9.55477e-20 8.59929e-19 7.73936e-18 6.96542e-17 6.26888e-16 5.01511e-15 3.51057e-14 2.4574e-13 1.72018e-12 1.20413e-11 8.42889e-11 5.90022e-10 4.13016e-09 2.89111e-08 2.02378e-07 1.41664e-06 9.9165e-06 6.94155e-05 0.000485909 0.00340136 0.0238095 0.166667 1 0 0 0 0 0 0 0 0 0 0;
#X coords 0 1 199 -1 200 140 1 0 0;
#X restore 708 34 graph;
#X obj 64 134 route status;
#X msg 64 182 -1;
#X msg 96 182 1;
#X obj 559 222 tabwrite connected-devices;
#X obj 64 158 sel, f 5;
#X obj 559 199 float;
#X floatatom 589 66 5 0 0 0 - - - 0;
#X obj 536 138 t b b b;
#X msg 536 246 \; connected-devices normalize;
#X obj 536 114 metro 20;
#X obj 591 175 r counter;
#X obj 634 376 output~;
#X obj 589 89 / 1000;
#X obj 634 312 voice/pwm-counter connected-devices;
#X obj 56 288 clone conversation-voice \$1;
#X obj 56 330 /~ \$1;
#X obj 149 330 /~ \$1;
#X obj 56 354 outlet~;
#X obj 149 354 outlet~;
#X obj 56 35 unpack s s f, f 19;
#X msg 64 110 \$2 \$3;
#X obj 56 11 inlet;
#X obj 536 43 loadbang;
#X obj 108 230 s counter, f 10;
#X obj 64 206 +, f 5;
#X obj 108 206 0;
#N canvas 384 91 587 519 voicemap 1;
#X obj 125 8 inlet;
#X obj 33 188 loadbang;
#X obj 33 236 \$1;
#X obj 33 260 until;
#X msg 33 284 -1;
#X obj 9 188 bng 19 250 50 0 empty empty empty 0 -10 0 12 #fcfcfc #000000 #000000;
#X obj 33 308 text insert \$0-voices;
#X obj 225 80 list split 1;
#X obj 311 152 route status;
#X msg 404 81 \$1;
#X obj 125 32 route free list, f 29;
#X obj 225 57 t l l, f 26;
#X obj 265 104 t l l, f 7;
#X obj 311 224 text search \$0-voices;
#X obj 311 128 list trim;
#X obj 125 103 t b f, f 6;
#X msg 125 127 -1;
#X obj 125 151 text set \$0-voices;
#X listbox 318 466 20 0 0 0 - - - 0;
#X obj 265 417 list, f 19;
#X obj 265 369 t b l, f 19;
#X obj 311 176 sel 1;
#X msg 311 200 -1;
#X obj 404 105 v \$0-device;
#X obj 343 321 text set \$0-voices;
#X obj 343 296 v \$0-device;
#X obj 265 393 v \$0-device-voice;
#X obj 355 248 v \$0-device-voice;
#X obj 420 152 v \$0-device-voice;
#X obj 420 128 text search \$0-voices;
#X obj 318 489 outlet;
#X obj 79 260 text define -k \$0-voices;
#A set 1 \; 3 \; 0 \; 4 \; 5 \; 6 \; 0 \; 7 \; 8 \; 9 \; -1 \; -1 \; -1 \; -1 \; -1 \; -1 \; -1 \; -1 \; -1 \; -1 \; -1 \; -1 \; -1 \; -1 \; -1 \; -1 \; -1 \; -1 \; -1 \; -1 \; -1 \; -1 \;;
#X obj 265 441 route -1;
#X obj 311 248 moses;
#X obj 343 272 t b f;
#X obj 33 212 t b b, f 7;
#X msg 79 236 clear;
#X connect 0 0 10 0;
#X connect 1 0 35 0;
#X connect 2 0 3 0;
#X connect 3 0 4 0;
#X connect 4 0 6 0;
#X connect 5 0 35 0;
#X connect 7 1 12 0;
#X connect 8 0 21 0;
#X connect 9 0 23 0;
#X connect 9 0 29 0;
#X connect 10 0 15 0;
#X connect 10 1 11 0;
#X connect 11 0 7 0;
#X connect 11 1 9 0;
#X connect 12 0 20 0;
#X connect 12 1 14 0;
#X connect 13 0 27 0;
#X connect 13 0 33 0;
#X connect 14 0 8 0;
#X connect 15 0 16 0;
#X connect 15 1 17 1;
#X connect 16 0 17 0;
#X connect 18 0 30 0;
#X connect 19 0 32 0;
#X connect 20 0 26 0;
#X connect 20 1 19 1;
#X connect 21 0 22 0;
#X connect 22 0 13 0;
#X connect 25 0 24 0;
#X connect 26 0 19 0;
#X connect 29 0 28 0;
#X connect 32 1 18 0;
#X connect 33 1 34 0;
#X connect 34 0 25 0;
#X connect 34 1 24 1;
#X connect 35 0 2 0;
#X connect 35 1 36 0;
#X connect 36 0 31 0;
#X restore 56 264 pd voicemap;
#X msg 242 312 free \$1;
#X floatatom 242 241 5 0 0 0 - - - 0;
#X msg 242 264 all \$1;
#X obj 246 67 noise~;
#X obj 246 115 snapshot~;
#X obj 246 91 lop~ 0.5;
#X obj 246 163 *;
#X obj 246 187 *;
#X obj 322 58 tgl 19 0 empty empty empty 0 -10 0 12 #fcfcfc #000000 #000000 0 1;
#X obj 322 82 metro 100;
#X obj 246 211 + 4;
#X obj 321 203 snapshot~;
#X obj 321 126 osc~ 0.1;
#X obj 321 179 +~ 6;
#X obj 321 150 *~ 0.5;
#X obj 388 146 tgl 19 0 empty empty empty 0 -10 0 12 #fcfcfc #000000 #000000 0 1;
#X obj 388 170 metro 1;
#X obj 246 139 * 250;
#X connect 0 0 1 0;
#X connect 1 0 25 0;
#X connect 1 0 31 0;
#X connect 2 0 3 0;
#X connect 2 0 8 1;
#X connect 3 0 2 1;
#X connect 5 0 9 0;
#X connect 6 0 29 0;
#X connect 7 0 29 0;
#X connect 9 0 6 0;
#X connect 9 1 7 0;
#X connect 10 0 8 0;
#X connect 11 0 17 0;
#X connect 12 0 13 0;
#X connect 12 1 10 0;
#X connect 12 2 2 0;
#X connect 14 0 12 0;
#X connect 15 0 10 1;
#X connect 17 0 14 1;
#X connect 18 0 16 0;
#X connect 18 1 16 1;
#X connect 19 0 20 0;
#X connect 19 1 21 0;
#X connect 19 2 32 0;
#X connect 20 0 22 0;
#X connect 21 0 23 0;
#X connect 24 0 0 0;
#X connect 24 1 1 1;
#X connect 24 2 1 2;
#X connect 25 0 5 0;
#X connect 26 0 24 0;
#X connect 27 0 14 0;
#X connect 29 0 30 0;
#X connect 30 0 28 0;
#X connect 30 0 29 1;
#X connect 31 0 19 0;
#X connect 32 0 31 0;
#X connect 33 0 34 0;
#X connect 34 0 19 1;
#X connect 35 0 37 0;
#X connect 36 0 49 0;
#X connect 37 0 36 0;
#X connect 38 0 39 0;
#X connect 38 0 39 1;
#X connect 39 0 42 0;
#X connect 40 0 41 0;
#X connect 41 0 36 0;
#X connect 42 0 33 0;
#X connect 43 0 33 0;
#X connect 44 0 46 0;
#X connect 45 0 43 0;
#X connect 46 0 45 0;
#X connect 47 0 48 0;
#X connect 48 0 43 0;
#X connect 49 0 38 0;
#X connect 49 0 38 1;
