#N canvas 397 170 818 514 12;
#X obj 129 12 inlet;
#X obj 129 36 route status rssi;
#X floatatom 187 61 5 0 0 0 - - - 0;
#X obj 100 444 outlet~;
#X obj 163 443 outlet~;
#X obj 129 182 voice/tone;
#X obj 632 415 sel 0;
#X obj 676 391 r \$0-switch;
#X obj 676 415 switch~;
#X obj 196 206 s \$0-switch;
#X obj 632 439 outlet;
#X obj 301 18 inlet;
#X connect 0 0 1 0;
#X connect 1 0 5 0;
#X connect 1 1 2 0;
#X connect 2 0 5 1;
#X connect 5 0 3 0;
#X connect 5 0 4 0;
#X connect 5 1 9 0;
#X connect 6 0 10 0;
#X connect 7 0 8 0;
#X connect 7 0 6 0;
#X connect 11 0 5 2;
