#N canvas 397 99 765 522 12;
#X obj 25 12 inlet;
#X obj 25 448 outlet~;
#X obj 83 448 outlet~;
#X obj 330 458 switch~;
#X obj 279 458 outlet;
#X obj 106 85 sel 1;
#X obj 106 133 array quantile \$2;
#X obj 25 181 list prepend;
#X obj 25 36 t a a, f 12;
#X obj 106 61 route status;
#X obj 106 109 expr random(0 \, 1e+9) / 1e+09;
#X obj 168 229 route status rssi;
#X floatatom 226 253 5 0 0 0 - - - 0;
#X obj 25 229 route status rssi;
#X floatatom 83 253 5 0 0 0 - - - 0;
#X obj 25 276 voice/mid-chord;
#X obj 106 157 expr $f1;
#X msg 279 434 \$1;
#X obj 455 229 route status rssi;
#X floatatom 513 253 5 0 0 0 - - - 0;
#X obj 25 205 route 0 1 2 3 4, f 103;
#X obj 455 276 voice/mid-noise-1;
#X obj 312 229 route status rssi;
#X floatatom 370 253 5 0 0 0 - - - 0;
#X obj 599 229 route status rssi;
#X floatatom 657 253 5 0 0 0 - - - 0;
#X obj 599 276 voice/mid-noise-2;
#X obj 168 276 voice/high-chord-1;
#X obj 312 276 voice/high-chord-2;
#X connect 0 0 8 0;
#X connect 5 0 10 0;
#X connect 6 0 16 0;
#X connect 7 0 20 0;
#X connect 8 0 7 0;
#X connect 8 1 9 0;
#X connect 9 0 5 0;
#X connect 10 0 6 0;
#X connect 11 0 27 0;
#X connect 11 1 12 0;
#X connect 12 0 27 1;
#X connect 13 0 15 0;
#X connect 13 1 14 0;
#X connect 14 0 15 1;
#X connect 15 0 1 0;
#X connect 15 0 2 0;
#X connect 15 1 17 0;
#X connect 16 0 7 1;
#X connect 17 0 4 0;
#X connect 17 0 3 0;
#X connect 18 0 21 0;
#X connect 18 1 19 0;
#X connect 19 0 21 1;
#X connect 20 0 13 0;
#X connect 20 1 11 0;
#X connect 20 2 22 0;
#X connect 20 3 18 0;
#X connect 20 4 24 0;
#X connect 21 0 1 0;
#X connect 21 1 2 0;
#X connect 21 2 17 0;
#X connect 22 0 28 0;
#X connect 22 1 23 0;
#X connect 23 0 28 1;
#X connect 24 0 26 0;
#X connect 24 1 25 0;
#X connect 25 0 26 1;
#X connect 26 0 1 0;
#X connect 26 1 2 0;
#X connect 26 2 17 0;
#X connect 27 0 1 0;
#X connect 27 1 2 0;
#X connect 27 2 17 0;
#X connect 28 0 1 0;
#X connect 28 1 2 0;
#X connect 28 2 17 0;
