#N canvas 11 470 197 211 12;
#X obj 13 83 oscparse;
#X obj 13 58 netreceive -u -b;
#X msg 13 34 listen 5000;
#X obj 13 108 list split 1;
#X obj 53 179 dac~ 1 2;
#X listbox 53 132 19 0 0 0 - - - 0;
#X obj 13 10 loadbang;
#X obj 53 155 conversation 62;
#X connect 0 0 3 0;
#X connect 1 0 0 0;
#X connect 2 0 1 0;
#X connect 3 1 5 0;
#X connect 5 0 7 0;
#X connect 6 0 2 0;
#X connect 7 0 4 0;
#X connect 7 1 4 1;
