#N canvas 398 191 314 305 12;
#X obj 10 82 oscparse;
#X obj 10 58 netreceive -u -b;
#X msg 10 34 listen 5000;
#X obj 10 106 list split 1;
#X obj 50 274 dac~ 1 2;
#X listbox 50 203 19 0 0 0 - - - 0;
#X obj 10 10 loadbang;
#X msg 186 34 0 0;
#X msg 152 34 0 1;
#X obj 50 155 float;
#X obj 50 179 pack f s f, f 12;
#X obj 50 130 unpack s s f;
#X obj 216 188 loadbang;
#X obj 216 212 del 1000;
#X msg 216 236 \; pd dsp 1;
#X msg 186 58 1 1;
#X msg 220 58 1 0;
#X msg 220 82 2 1;
#X msg 254 82 2 0;
#X msg 152 130 \$1 status \$2;
#X obj 50 250 conversation 64;
#X connect 0 0 3 0;
#X connect 1 0 0 0;
#X connect 2 0 1 0;
#X connect 3 1 11 0;
#X connect 5 0 20 0;
#X connect 6 0 2 0;
#X connect 7 0 19 0;
#X connect 8 0 19 0;
#X connect 9 0 10 0;
#X connect 10 0 5 0;
#X connect 11 0 9 0;
#X connect 11 1 10 1;
#X connect 11 2 10 2;
#X connect 12 0 13 0;
#X connect 13 0 14 0;
#X connect 15 0 19 0;
#X connect 16 0 19 0;
#X connect 17 0 19 0;
#X connect 18 0 19 0;
#X connect 19 0 20 0;
#X connect 20 0 4 0;
#X connect 20 1 4 1;
