#N canvas 459 88 808 314 12;
#X declare -path ..;
#X obj 10 10 declare -path ..;
#X obj 10 59 helloworld;
#X obj 10 35 bng 19 250 50 0 empty empty empty 0 -10 0 12 #fcfcfc #000000 #000000;
#X obj 281 187 linfb~ 1 1.2 1.4 1.6 1.8;
#X obj 280 237 output~;
#X obj 62 175 linfb0~ 1 1.2 1.4 1.6 1.8;
#X obj 62 236 output~;
#X obj 201 21 nbx 5 17 -1e+37 1e+37 0 1 empty empty empty 0 -10 0 12 #fcfcfc #000000 #000000 207.3 256;
#X obj 275 22 nbx 5 17 -1e+37 1e+37 0 1 empty empty empty 0 -10 0 12 #fcfcfc #000000 #000000 281 256;
#X obj 346 24 nbx 5 17 -1e+37 1e+37 0 1 empty empty empty 0 -10 0 12 #fcfcfc #000000 #000000 2.45999 256;
#X obj 438 22 nbx 5 17 -1e+37 1e+37 0 1 empty empty empty 0 -10 0 12 #fcfcfc #000000 #000000 152 256;
#X msg 275 44 fb \$1;
#X msg 201 43 freq \$1;
#X msg 346 46 delay \$1;
#X msg 438 44 fold \$1;
#X obj 516 19 nbx 5 17 -1e+37 1e+37 0 1 empty empty empty 0 -10 0 12 #fcfcfc #000000 #000000 0.56 256;
#X msg 516 41 skew \$1;
#X obj 61 203 *~ -1;
#X obj 409 247 print~;
#X obj 518 176 bng 19 250 50 0 empty empty empty 0 -10 0 12 #fcfcfc #000000 #000000;
#X connect 2 0 1 0;
#X connect 3 0 4 0;
#X connect 3 0 4 1;
#X connect 3 0 18 0;
#X connect 5 0 17 0;
#X connect 7 0 12 0;
#X connect 8 0 11 0;
#X connect 9 0 13 0;
#X connect 10 0 14 0;
#X connect 11 0 5 0;
#X connect 11 0 3 0;
#X connect 12 0 3 0;
#X connect 12 0 5 0;
#X connect 13 0 5 0;
#X connect 13 0 3 0;
#X connect 14 0 5 0;
#X connect 14 0 3 0;
#X connect 15 0 16 0;
#X connect 16 0 5 0;
#X connect 16 0 3 0;
#X connect 17 0 6 0;
#X connect 17 0 6 1;
#X connect 19 0 18 0;
