#N canvas 332 236 808 314 12;
#X declare -path ..;
#X obj 10 10 declare -path ..;
#X obj 10 59 helloworld;
#X obj 10 35 bng 19 250 50 0 empty empty empty 0 -10 0 12 #fcfcfc #000000 #000000;
#X obj 280 237 output~;
#X obj 62 236 output~;
#X obj 201 21 nbx 5 17 -1e+37 1e+37 0 1 empty empty empty 0 -10 0 12 #fcfcfc #000000 #000000 561.3 256;
#X obj 275 22 nbx 5 17 -1e+37 1e+37 0 1 empty empty empty 0 -10 0 12 #fcfcfc #000000 #000000 119 256;
#X obj 346 24 nbx 5 17 -1e+37 1e+37 0 1 empty empty empty 0 -10 0 12 #fcfcfc #000000 #000000 30.46 256;
#X obj 438 22 nbx 5 17 -1e+37 1e+37 0 1 empty empty empty 0 -10 0 12 #fcfcfc #000000 #000000 83 256;
#X msg 275 44 fb \$1;
#X msg 201 43 freq \$1;
#X msg 346 46 delay \$1;
#X msg 438 44 fold \$1;
#X obj 516 19 nbx 5 17 -1e+37 1e+37 0 1 empty empty empty 0 -10 0 12 #fcfcfc #000000 #000000 1 256;
#X msg 516 41 skew \$1;
#X obj 61 203 *~ -1;
#X obj 62 175 linfb-tri0~ 1 1.2 1.4 1.6 1.8;
#X obj 280 175 linfb-tri~ 1 1.2 1.4 1.6 1.8;
#X connect 2 0 1 0;
#X connect 5 0 10 0;
#X connect 6 0 9 0;
#X connect 7 0 11 0;
#X connect 8 0 12 0;
#X connect 9 0 16 0;
#X connect 9 0 17 0;
#X connect 10 0 16 0;
#X connect 10 0 17 0;
#X connect 11 0 16 0;
#X connect 11 0 17 0;
#X connect 12 0 16 0;
#X connect 12 0 17 0;
#X connect 13 0 14 0;
#X connect 14 0 16 0;
#X connect 14 0 17 0;
#X connect 15 0 4 0;
#X connect 15 0 4 1;
#X connect 16 0 15 0;
#X connect 17 0 3 0;
#X connect 17 0 3 1;
