#N canvas 46 66 552 517 12;
#X obj 49 168 unpack f s;
#X obj 49 192 send, f 10;
#X obj 49 120 list append \$0;
#X msg 49 144 \$2 \$3-\$1;
#X obj 61 72 list split 2;
#X obj 101 96 t b l;
#X obj 61 10 loadbang;
#X obj 10 10 inlet~;
#X obj 10 487 outlet~;
#X obj 10 463 else/bpbank~ \$1 0;
#X obj 29 406 r \$0-ramp;
#X msg 342 155 seed \$1;
#X obj 342 179 random 1e+09;
#N canvas 12 231 484 405 freqs 0;
#X obj 248 25 inlet;
#X obj 68 252 *, f 22;
#X obj 68 300 list store;
#X msg 68 276 append \$1 \, bang;
#X obj 68 228 + 1;
#X obj 413 18 inlet;
#X obj 21 18 inlet;
#X msg 68 90 seed \$1;
#X obj 21 66 \$1;
#X obj 21 90 until;
#X obj 68 324 list split \$1, f 15;
#X obj 68 348 list prepend freq;
#X obj 68 372 outlet;
#X obj 68 204 random;
#X obj 21 42 t b f b, f 14;
#X obj 143 139 expr min(floor($f1 / 2 / $f2) - 1 \, $f3);
#X obj 143 91 samplerate~;
#X connect 0 0 1 1;
#X connect 0 0 15 1;
#X connect 1 0 3 0;
#X connect 2 0 10 0;
#X connect 3 0 2 0;
#X connect 4 0 1 0;
#X connect 5 0 15 2;
#X connect 6 0 14 0;
#X connect 7 0 13 0;
#X connect 8 0 9 0;
#X connect 9 0 13 0;
#X connect 10 0 11 0;
#X connect 10 1 2 1;
#X connect 11 0 12 0;
#X connect 13 0 4 0;
#X connect 14 0 8 0;
#X connect 14 1 7 0;
#X connect 14 2 16 0;
#X connect 15 0 13 1;
#X connect 16 0 15 0;
#X restore 396 371 pd freqs;
#X msg 342 203 append \$1 \, bang;
#X obj 342 227 list store;
#X obj 342 251 list split 3;
#X obj 342 275 unpack f f f, f 16;
#N canvas 12 231 399 309 q 0;
#X obj 21 18 inlet;
#X msg 67 90 seed \$1;
#X obj 67 211 list store;
#X msg 67 187 append \$1 \, bang;
#X obj 21 42 t b f, f 7;
#X obj 21 66 \$1;
#X obj 67 235 list split \$1;
#X obj 21 90 until;
#X obj 67 259 list prepend q;
#X obj 67 283 outlet;
#X obj 195 17 inlet;
#X obj 67 139 random;
#X obj 67 163 +, f 11;
#X obj 195 41 * 0.7;
#X obj 145 41 * 0.3;
#X connect 0 0 4 0;
#X connect 1 0 11 0;
#X connect 2 0 6 0;
#X connect 3 0 2 0;
#X connect 4 0 5 0;
#X connect 4 1 1 0;
#X connect 5 0 7 0;
#X connect 6 0 8 0;
#X connect 6 1 2 1;
#X connect 7 0 11 0;
#X connect 8 0 9 0;
#X connect 10 0 13 0;
#X connect 10 0 14 0;
#X connect 11 0 12 0;
#X connect 12 0 3 0;
#X connect 13 0 12 1;
#X connect 14 0 11 1;
#X restore 451 299 pd q;
#N canvas 11 303 348 356 amp 0;
#X obj 67 140 random 1e+06;
#X obj 67 164 / 1e+06;
#X obj 21 18 inlet;
#X obj 67 236 list store;
#X obj 21 42 t b f, f 7;
#X obj 21 66 \$1;
#X obj 67 260 list split \$1;
#X obj 21 90 until;
#X obj 67 284 list prepend amp;
#X obj 67 308 outlet;
#X msg 67 90 seed \$1;
#X msg 67 212 append \$1 \, bang;
#X obj 67 188 expr dbtorms($f1 * 20 + 80);
#X connect 0 0 1 0;
#X connect 1 0 12 0;
#X connect 2 0 4 0;
#X connect 3 0 6 0;
#X connect 4 0 5 0;
#X connect 4 1 10 0;
#X connect 5 0 7 0;
#X connect 6 0 8 0;
#X connect 6 1 3 1;
#X connect 7 0 0 0;
#X connect 8 0 9 0;
#X connect 10 0 0 0;
#X connect 11 0 3 0;
#X connect 12 0 11 0;
#X restore 342 299 pd amp;
#X msg 296 106 3;
#X obj 296 130 until;
#X obj 342 406 list trim;
#X obj 259 10 r \$0-freq;
#X obj 296 34 r \$0-seed;
#X obj 449 347 r \$0-harms;
#X obj 476 274 r \$0-maxq;
#X obj 422 323 r \$0-freq;
#X msg 29 430 rampall \$1;
#X obj 296 58 float;
#X obj 296 82 t b f, f 7;
#X obj 259 34 bang;
#X obj 61 34 list store freq \$2 harms \$3 maxq \$4 seed \$5 ramp \$6, f 27;
#X connect 0 0 1 0;
#X connect 0 1 1 1;
#X connect 2 0 3 0;
#X connect 3 0 0 0;
#X connect 4 0 2 0;
#X connect 4 1 5 0;
#X connect 5 0 32 0;
#X connect 5 1 32 1;
#X connect 6 0 32 0;
#X connect 7 0 9 0;
#X connect 7 1 2 0;
#X connect 9 0 8 0;
#X connect 10 0 28 0;
#X connect 11 0 12 0;
#X connect 12 0 14 0;
#X connect 13 0 22 0;
#X connect 14 0 15 0;
#X connect 15 0 16 0;
#X connect 16 0 17 0;
#X connect 16 1 15 1;
#X connect 17 0 19 0;
#X connect 17 1 13 0;
#X connect 17 2 18 0;
#X connect 18 0 22 0;
#X connect 19 0 22 0;
#X connect 20 0 21 0;
#X connect 21 0 12 0;
#X connect 22 0 9 0;
#X connect 23 0 31 0;
#X connect 24 0 29 0;
#X connect 25 0 13 2;
#X connect 26 0 18 1;
#X connect 27 0 13 1;
#X connect 28 0 9 0;
#X connect 29 0 30 0;
#X connect 30 0 20 0;
#X connect 30 1 11 0;
#X connect 31 0 29 0;
#X connect 32 0 4 0;
