#N canvas 502 57 396 307 12;
#X declare -path ..;
#X obj 20 258 dac~;
#X msg 216 97 seed \$1;
#X floatatom 154 74 5 0 0 0 - - - 0;
#X msg 154 97 freq \$1;
#X obj 20 161 hip~ 100;
#X obj 20 185 hip~ 100;
#X msg 307 97 harms \$1;
#X obj 20 26 declare -path ..;
#X obj 20 137 lerp/rndbp 8 600 20 200 234 0;
#N canvas 92 117 203 255 seed 0;
#X obj 10 177 random 1e+06;
#X obj 10 201 * 1000;
#X obj 10 129 line 100;
#X obj 10 105 expr random(200 \, 1000);
#X obj 26 34 expr random(1000 \, 5000);
#X floatatom 26 58 5 0 0 0 - - - 0;
#X obj 26 10 lerp/poisson 10000;
#X obj 10 81 lerp/poisson 1000;
#X obj 10 153 lerp/poisson 240;
#X obj 10 225 outlet;
#X connect 0 0 1 0;
#X connect 1 0 9 0;
#X connect 2 0 8 0;
#X connect 3 0 2 0;
#X connect 4 0 5 0;
#X connect 4 0 7 0;
#X connect 6 0 4 0;
#X connect 7 0 3 0;
#X connect 8 0 0 0;
#X restore 216 50 pd seed;
#X floatatom 216 74 12 0 0 0 - - - 0;
#N canvas 121 146 450 365 click~ 0;
#X obj 11 249 abs~;
#X obj 11 129 line 100;
#X floatatom 27 58 5 0 0 0 - - - 0;
#X obj 11 105 expr random(300 \, 1200);
#X obj 27 34 expr random(1500 \, 10000);
#X obj 11 273 *~ 40;
#X obj 11 225 hip~ 0.2;
#X obj 27 10 lerp/poisson 9000;
#X obj 11 81 lerp/poisson 1000;
#X obj 11 153 lerp/poisson 200;
#X obj 11 177 float;
#X obj 11 201 != 1;
#X obj 11 297 outlet~;
#X connect 0 0 5 0;
#X connect 1 0 9 0;
#X connect 3 0 1 0;
#X connect 4 0 2 0;
#X connect 4 0 8 0;
#X connect 5 0 12 0;
#X connect 6 0 0 0;
#X connect 7 0 4 0;
#X connect 8 0 3 0;
#X connect 9 0 10 0;
#X connect 10 0 11 0;
#X connect 11 0 10 1;
#X connect 11 0 6 0;
#X restore 20 50 pd click~;
#N canvas 150 175 311 113 ramp 0;
#X obj 10 58 line 100;
#X obj 10 34 expr pow(random(0 \, 1e+6) / 1e+06 \, 6) * 20;
#X obj 10 10 lerp/poisson 1000;
#X obj 10 82 outlet;
#X connect 0 0 3 0;
#X connect 1 0 0 0;
#X connect 2 0 1 0;
#X restore 92 50 pd ramp;
#X floatatom 92 74 6 0 0 0 - - - 0;
#X msg 92 97 ramp \$1;
#N canvas 179 204 388 184 freq 0;
#X obj 52 82 bng 19 250 50 0 empty empty empty 0 -10 0 12 #fcfcfc #000000 #000000;
#X obj 52 106 samplerate~;
#X obj 52 58 t b f;
#X floatatom 10 58 5 0 0 0 - - - 0;
#X obj 52 130 expr $f1 / 2 / $f2;
#X obj 10 34 expr round(pow(random(0 \, 1e+6) / 1e+06 \, 2) * 16) + 2;
#X obj 10 10 lerp/poisson 1000;
#X obj 52 154 outlet;
#X connect 0 0 1 0;
#X connect 1 0 4 0;
#X connect 2 0 0 0;
#X connect 2 1 4 1;
#X connect 4 0 7 0;
#X connect 5 0 2 0;
#X connect 5 0 3 0;
#X connect 6 0 5 0;
#X restore 154 50 pd freq;
#N canvas 208 233 150 111 harms 0;
#X obj 10 58 line 100;
#X obj 10 34 expr random(7 \, 30);
#X obj 10 10 lerp/poisson 4000;
#X obj 10 82 outlet;
#X connect 0 0 3 0;
#X connect 1 0 0 0;
#X connect 2 0 1 0;
#X restore 307 50 pd harms;
#X floatatom 307 74 5 0 0 0 - - - 0;
#X connect 1 0 8 0;
#X connect 2 0 3 0;
#X connect 3 0 8 0;
#X connect 4 0 5 0;
#X connect 5 0 0 0;
#X connect 6 0 8 0;
#X connect 8 0 4 0;
#X connect 9 0 10 0;
#X connect 10 0 1 0;
#X connect 11 0 8 0;
#X connect 12 0 13 0;
#X connect 13 0 14 0;
#X connect 14 0 8 0;
#X connect 15 0 2 0;
#X connect 16 0 17 0;
#X connect 17 0 6 0;
