#N canvas 255 28 947 564 12;
#X declare -path ../;
#X obj 12 12 inlet;
#X obj 268 11 inlet;
#X obj 149 456 r \$0-state;
#X obj 20 36 s \$0-state;
#X obj 12 126 sel 1;
#X obj 149 504 outlet;
#X obj 200 504 switch~;
#X obj 12 336 hip~ 100;
#X obj 12 360 hip~ 100;
#X obj 750 424 declare -path ../;
#N canvas 723 197 325 356 gate2 0;
#X obj 142 19 inlet;
#X obj 88 19 inlet~;
#X msg 210 67 stop;
#X obj 89 265 *~;
#X obj 142 217 line~;
#X obj 89 289 outlet~;
#X obj 178 139 outlet;
#X obj 178 43 sel 0;
#X msg 178 115 0;
#X obj 30 19 inlet~;
#X obj 31 265 *~;
#X obj 31 289 outlet~;
#X obj 142 169 sel 0 1, f 14;
#X msg 189 193 1 2000;
#X msg 142 193 0 100;
#X obj 178 91 del 100;
#X connect 0 0 7 0;
#X connect 0 0 12 0;
#X connect 1 0 3 0;
#X connect 2 0 15 0;
#X connect 3 0 5 0;
#X connect 4 0 3 1;
#X connect 4 0 10 1;
#X connect 7 0 15 0;
#X connect 7 1 2 0;
#X connect 7 1 6 0;
#X connect 8 0 6 0;
#X connect 9 0 10 0;
#X connect 10 0 11 0;
#X connect 12 0 14 0;
#X connect 12 1 13 0;
#X connect 13 0 4 0;
#X connect 14 0 4 0;
#X connect 15 0 8 0;
#X restore 12 480 pd gate2;
#X f 20;
#X msg 268 202 freq \$1;
#X obj 566 20 loadbang;
#X obj 566 106 cos~;
#X obj 566 130 snapshot~;
#X obj 268 35 t f b;
#X obj 275 250 loadbang;
#X obj 566 44 expr 0.005 * ((random(0 \, 1e+6) / 1e+6) * 0.5 + 0.5) \; random(0 \, 1e+6) / 1e+06;
#X obj 566 82 phasor~;
#X obj 275 312 osc~;
#X obj 629 312 osc~;
#X obj 275 336 *~;
#X obj 12 456 *~;
#X obj 196 288 r \$0-state;
#X obj 196 312 sel 1;
#X obj 275 360 snapshot~;
#X obj 275 384 - 1;
#X obj 275 408 * -1;
#X obj 80 456 *~;
#X obj 566 154 expr $f1 * $f1 * $f1;
#X msg 12 202 skew \$1;
#X obj 12 312 lerp/linfb~ 5 128 8 100 6;
#X obj 305 336 lerp/poisson 2000;
#X obj 12 384 lop~ 1000;
#X obj 275 274 expr 0.07 * ((random(0 \, 1e+6) / 1e+6) * 0.5 + 0.5) \; 0.05 * ((random(0 \, 1e+6) / 1e+6) * 0.5 + 0.5) \;;
#X obj 268 178 expr -($f2 * (40.12 + random(-2 \, 3))) / $f1;
#X msg 101 202 fb \$1;
#X msg 191 202 delay \$1;
#X obj 12 432 lop~ 4000;
#X obj 12 408 lop~ 4000;
#X obj 12 150 expr random(60 \, 150) / 10 \; random(160 \, 320) \; random(10 \, 80) / 10 \;;
#X obj 12 504 *~ 2;
#X obj 12 528 outlet~;
#X obj 80 528 outlet~;
#X obj 80 504 *~ 1.5;
#X connect 0 0 4 0;
#X connect 0 0 3 0;
#X connect 1 0 15 0;
#X connect 2 0 10 2;
#X connect 4 0 40 0;
#X connect 7 0 8 0;
#X connect 8 0 33 0;
#X connect 10 0 41 0;
#X connect 10 1 44 0;
#X connect 10 2 5 0;
#X connect 10 2 6 0;
#X connect 11 0 31 0;
#X connect 12 0 17 0;
#X connect 13 0 14 0;
#X connect 14 0 29 0;
#X connect 15 0 35 0;
#X connect 15 1 14 0;
#X connect 16 0 34 0;
#X connect 17 0 18 0;
#X connect 17 1 18 1;
#X connect 18 0 13 0;
#X connect 19 0 21 0;
#X connect 20 0 21 1;
#X connect 21 0 25 0;
#X connect 22 0 10 0;
#X connect 23 0 24 0;
#X connect 24 0 25 0;
#X connect 25 0 26 0;
#X connect 25 0 22 1;
#X connect 26 0 27 0;
#X connect 27 0 28 1;
#X connect 28 0 10 1;
#X connect 29 0 35 1;
#X connect 30 0 31 0;
#X connect 31 0 7 0;
#X connect 32 0 25 0;
#X connect 33 0 39 0;
#X connect 34 0 19 0;
#X connect 34 1 20 0;
#X connect 35 0 11 0;
#X connect 36 0 31 0;
#X connect 37 0 31 0;
#X connect 38 0 22 0;
#X connect 39 0 38 0;
#X connect 40 0 30 0;
#X connect 40 1 36 0;
#X connect 40 2 37 0;
#X connect 41 0 42 0;
#X connect 44 0 43 0;
