#N canvas 327 28 953 665 12;
#X declare -path ../;
#X obj 42 13 inlet;
#X obj 301 12 inlet;
#X obj 185 581 r \$0-state;
#X obj 87 37 s \$0-state;
#X obj 42 37 sel 1;
#X obj 48 629 outlet~;
#X obj 185 629 outlet;
#X obj 236 629 switch~;
#X msg 1084 16 freq 5 \, fb 146 \, delay 1 \, fold 238;
#X msg 1099 46 freq 5 \, fb 108 \, delay 8 \, fold 50;
#X msg 1122 75 freq 3 \, fb -97 \, delay 9 \, fold 152;
#X obj 1041 362 metro 10;
#X obj 1013 318 tgl 19 0 empty empty empty 0 -10 0 12 #fcfcfc #000000 #000000 0 1;
#X obj 949 386 snapshot~;
#X msg 949 434 fold \$1;
#X obj 949 362 phasor~ 0.2;
#X obj 949 410 expr $f1 * 400 + 100;
#X obj 1108 484 output~;
#X obj 949 507 lop~ 100;
#X obj 949 531 lop~ 100;
#X obj 48 470 hip~ 100;
#X obj 48 494 hip~ 100;
#X obj 116 470 hip~ 100;
#X obj 116 494 hip~ 100;
#X obj 1189 314 *~ 3000;
#X obj 655 289 declare -path ../;
#N canvas 723 197 325 356 gate2 0;
#X obj 142 19 inlet;
#X obj 88 19 inlet~;
#X msg 210 67 stop;
#X obj 89 265 *~;
#X obj 142 217 line~;
#X obj 89 289 outlet~;
#X obj 178 139 outlet;
#X obj 178 43 sel 0;
#X msg 178 115 0;
#X obj 30 19 inlet~;
#X obj 31 265 *~;
#X obj 31 289 outlet~;
#X obj 142 169 sel 0 1, f 14;
#X msg 189 193 1 2000;
#X msg 142 193 0 100;
#X obj 178 91 del 100;
#X connect 0 0 7 0;
#X connect 0 0 12 0;
#X connect 1 0 3 0;
#X connect 2 0 15 0;
#X connect 3 0 5 0;
#X connect 4 0 3 1;
#X connect 4 0 10 1;
#X connect 7 0 15 0;
#X connect 7 1 2 0;
#X connect 7 1 6 0;
#X connect 8 0 6 0;
#X connect 9 0 10 0;
#X connect 10 0 11 0;
#X connect 12 0 14 0;
#X connect 12 1 13 0;
#X connect 13 0 4 0;
#X connect 14 0 4 0;
#X connect 15 0 8 0;
#X restore 48 605 pd gate2;
#X f 20;
#X obj 116 629 outlet~;
#X obj 948 474 off lerp/linfb~ -11 -115 39 238;
#X obj 1173 148 off lerp/linfb~ 3 -97 9 152;
#X obj 1030 260 off lerp/linfb~ 5 146 1 238;
#X msg 1123 104 freq 0.2 \, fb -140 \, delay 1 \, fold 120;
#X msg 1046 181 rbdbp 16 2720 100 1200 134 5;
#X msg 1047 223 rndbp 16 2720 100 1190 163 5;
#X msg 301 240 freq \$1;
#X msg 473 240 freq \$1;
#X msg 50 99 delay \$1;
#X msg 222 99 delay \$1;
#X obj 116 422 r \$0-right;
#X obj 48 374 r \$0-left;
#X obj 50 123 s \$0-left;
#X obj 222 123 s \$0-right;
#X obj 301 264 s \$0-left;
#X obj 473 264 s \$0-right;
#X obj 1152 400 off lerp/rndbp~ 16 2720 100 1190 163 5;
#X obj 1189 347 off lerp/rndbp~ 16 2720 100 1200 134 5;
#X obj 1189 290 off lerp/linfb~ 0.2 -140 1 120;
#X obj 606 12 loadbang;
#X obj 606 98 cos~;
#X obj 606 122 snapshot~;
#X obj 301 36 t f b;
#X obj 444 339 loadbang;
#X obj 606 36 expr 0.005 * ((random(0 \, 1e+6) / 1e+6) * 0.5 + 0.5) \; random(0 \, 1e+6) / 1e+06;
#X obj 606 74 phasor~;
#X obj 301 202 expr -($f2 * (40.12 + random(-2 \, 3))) / $f1 \; -($f2 * (38.3 + random(-2 \, 5))) / $f1;
#X floatatom 606 170 5 0 0 0 - - - 0;
#X obj 444 401 osc~;
#X obj 805 401 osc~;
#X obj 444 425 *~;
#X obj 48 581 *~;
#X obj 363 377 r \$0-state;
#X obj 363 401 sel 1;
#X obj 444 449 snapshot~;
#X obj 444 473 - 1;
#X obj 444 497 * -1;
#X obj 116 581 *~;
#X floatatom 475 474 5 0 0 0 - - - 0;
#X obj 606 146 expr $f1 * $f1 * $f1;
#X obj 50 61 expr random(10 \, 80) / 10 \; random(10 \, 80) / 10;
#X obj 42 210 s \$0-left;
#X obj 193 210 s \$0-right;
#X msg 42 186 fb \$1;
#X msg 193 186 fb \$1;
#X obj 446 537 loadbang;
#X obj 446 561 expr 0.05 * ((random(0 \, 1e+6) / 1e+6) * 0.5 + 0.5) \; 0.05 * ((random(0 \, 1e+6) / 1e+6) * 0.5 + 0.5) \;;
#X obj 19 298 s \$0-left;
#X obj 198 298 s \$0-right;
#X msg 19 274 skew \$1;
#X msg 198 274 skew \$1;
#X obj 48 398 lerp/linfb~ 5 128 8 100 6;
#X obj 116 446 lerp/linfb~ 4.5 129 4 100 6.5;
#X obj 562 451 lerp/poisson 2000;
#X obj 42 148 expr random(160 \, 260) \; random(200 \, 250) \;;
#X obj 48 518 lop~ 1000;
#X obj 116 518 lop~ 1000;
#X obj 19 236 expr random(60 \, 150) / 10 \; random(60 \, 190) / 10 \;;
#X obj 444 363 expr 0.07 * ((random(0 \, 1e+6) / 1e+6) * 0.5 + 0.5) \; 0.05 * ((random(0 \, 1e+6) / 1e+6) * 0.5 + 0.5) \;;
#X obj 48 542 lop~ 4000;
#X obj 116 542 lop~ 4000;
#X obj 78 581 *~;
#X obj 146 581 *~;
#X connect 0 0 4 0;
#X connect 0 0 3 0;
#X connect 1 0 50 0;
#X connect 2 0 26 2;
#X connect 4 0 68 0;
#X connect 4 0 82 0;
#X connect 4 0 85 0;
#X connect 11 0 13 0;
#X connect 12 0 11 0;
#X connect 13 0 16 0;
#X connect 14 0 28 0;
#X connect 15 0 13 0;
#X connect 16 0 14 0;
#X connect 18 0 19 0;
#X connect 20 0 21 0;
#X connect 21 0 83 0;
#X connect 22 0 23 0;
#X connect 23 0 84 0;
#X connect 24 0 44 0;
#X connect 24 0 45 0;
#X connect 26 0 5 0;
#X connect 26 1 27 0;
#X connect 26 2 6 0;
#X connect 26 2 7 0;
#X connect 28 0 18 0;
#X connect 34 0 42 0;
#X connect 35 0 43 0;
#X connect 36 0 40 0;
#X connect 37 0 41 0;
#X connect 38 0 80 0;
#X connect 39 0 79 0;
#X connect 46 0 24 0;
#X connect 47 0 52 0;
#X connect 48 0 49 0;
#X connect 49 0 67 0;
#X connect 50 0 54 0;
#X connect 50 1 49 0;
#X connect 51 0 86 0;
#X connect 52 0 53 0;
#X connect 52 1 53 1;
#X connect 53 0 48 0;
#X connect 54 0 34 0;
#X connect 54 1 35 0;
#X connect 55 0 54 1;
#X connect 56 0 58 0;
#X connect 57 0 58 1;
#X connect 58 0 62 0;
#X connect 59 0 26 0;
#X connect 60 0 61 0;
#X connect 61 0 62 0;
#X connect 62 0 63 0;
#X connect 62 0 59 1;
#X connect 62 0 66 0;
#X connect 62 0 90 1;
#X connect 63 0 64 0;
#X connect 64 0 65 1;
#X connect 64 0 89 1;
#X connect 65 0 26 1;
#X connect 67 0 55 0;
#X connect 68 0 36 0;
#X connect 68 1 37 0;
#X connect 71 0 69 0;
#X connect 72 0 70 0;
#X connect 73 0 74 0;
#X connect 77 0 75 0;
#X connect 78 0 76 0;
#X connect 79 0 20 0;
#X connect 80 0 22 0;
#X connect 81 0 62 0;
#X connect 82 0 71 0;
#X connect 82 1 72 0;
#X connect 83 0 87 0;
#X connect 84 0 88 0;
#X connect 85 0 77 0;
#X connect 85 1 78 0;
#X connect 86 0 56 0;
#X connect 86 1 57 0;
#X connect 87 0 59 0;
#X connect 87 0 90 0;
#X connect 88 0 65 0;
#X connect 88 0 89 0;
#X connect 89 0 26 0;
#X connect 90 0 26 1;
